<svg width="138" height="138" viewBox="0 0 138 138" fill="none" xmlns="http://www.w3.org/2000/svg">
<path d="M103.9 119.775L68.9996 129.172L34.0984 119.775L26.0446 32.5227H111.955L103.9 119.775Z" fill="#2062AF"/>
<path d="M68.9993 39.59V121.677L69.0782 121.698L97.3219 114.093L103.841 39.59H68.9993Z" fill="#3C9CD7"/>
<path d="M49.1919 19.7036V14.5104H56.7688V8.82782H43.5093V24.8892H56.7688V19.7036H49.1919ZM70.3989 14.5104H75.6961V8.82782H62.4353V14.5104C64.2094 16.2846 65.1347 17.1337 67.7005 19.6995C66.2006 19.6995 62.4353 19.7049 62.4353 19.7047V24.8892H75.6961V19.7036L70.3989 14.5104ZM89.1937 14.5104H94.4906V8.82782H81.2293V14.5104C83.0035 16.2846 83.9292 17.1337 86.4951 19.6995C84.9956 19.6995 81.2293 19.7049 81.2293 19.7047V24.8892H94.4909V19.7036L89.1937 14.5104Z" fill="black"/>
<path d="M68.9683 61.4065L43.9887 71.8098L44.8171 82.1099L68.9683 71.7837L94.659 60.7997L95.7241 50.2631L68.9683 61.4065Z" fill="white"/>
<path d="M43.9885 71.8098L44.8168 82.1099L68.9681 71.7836V61.4064L43.9885 71.8098Z" fill="url(#paint0_linear_5_52)"/>
<path d="M95.7241 50.2634L68.9684 61.4064V71.7837L94.659 60.7997L95.7241 50.2634Z" fill="url(#paint1_linear_5_52)"/>
<path d="M44.0269 71.8098L44.8556 82.1099L81.9125 82.228L81.0836 95.9613L68.8897 99.3942L57.1678 96.4346L56.4575 87.9104H45.5658L46.9866 104.367L69.0081 110.878L90.9101 104.485L93.7517 71.8098H44.0269Z" fill="url(#paint2_linear_5_52)"/>
<path opacity="0.05" d="M68.9683 71.8098H43.9887L44.8171 82.1099L68.9683 82.187V71.8098ZM68.9683 99.3614L68.85 99.3945L57.1296 96.4348L56.4194 87.9106H45.5279L46.9484 104.367L68.9683 110.878V99.3614Z" fill="black"/>
<path d="M41.739 50.2634H95.7241L94.659 60.7999H43.0412L41.739 50.2634Z" fill="url(#paint3_linear_5_52)"/>
<path opacity="0.05" d="M68.9683 50.2634H41.739L43.0412 60.7999H68.9683V50.2634Z" fill="black"/>
<defs>
<linearGradient id="paint0_linear_5_52" x1="56.4783" y1="82.1101" x2="56.4783" y2="61.4067" gradientUnits="userSpaceOnUse">
<stop offset="0.387" stop-color="#D1D3D4" stop-opacity="0"/>
<stop offset="1" stop-color="#D1D3D4"/>
</linearGradient>
<linearGradient id="paint1_linear_5_52" x1="82.346" y1="71.7839" x2="82.346" y2="50.2636" gradientUnits="userSpaceOnUse">
<stop offset="0.387" stop-color="#D1D3D4" stop-opacity="0"/>
<stop offset="1" stop-color="#D1D3D4"/>
</linearGradient>
<linearGradient id="paint2_linear_5_52" x1="44.0269" y1="91.3441" x2="93.7514" y2="91.3441" gradientUnits="userSpaceOnUse">
<stop stop-color="#E8E7E5"/>
<stop offset="1" stop-color="white"/>
</linearGradient>
<linearGradient id="paint3_linear_5_52" x1="41.739" y1="55.5317" x2="95.7239" y2="55.5317" gradientUnits="userSpaceOnUse">
<stop stop-color="#E8E7E5"/>
<stop offset="1" stop-color="white"/>
</linearGradient>
</defs>
</svg>
