<svg width="84" height="84" viewBox="0 0 84 84" fill="none" xmlns="http://www.w3.org/2000/svg">
<g clip-path="url(#clip0_5_1784)">
<path d="M28.011 83.9997C31.7241 83.9997 35.285 82.5248 37.9105 79.8992C40.536 77.2737 42.011 73.7128 42.011 69.9998V55.9998H28.011C24.298 55.9998 20.7371 57.4747 18.1116 60.1003C15.486 62.7258 14.011 66.2867 14.011 69.9998C14.011 73.7128 15.486 77.2737 18.1116 79.8992C20.7371 82.5248 24.298 83.9997 28.011 83.9997Z" fill="#0ACF83"/>
<path d="M14.011 41.9998C14.011 38.2867 15.486 34.7258 18.1116 32.1003C20.7371 29.4748 24.298 27.9998 28.011 27.9998H42.011V55.9997H28.011C24.298 55.9997 20.7371 54.5248 18.1116 51.8992C15.486 49.2737 14.011 45.7128 14.011 41.9998Z" fill="#A259FF"/>
<path d="M14.011 13.9998C14.011 10.2886 15.4845 6.72932 18.1077 4.10412C20.7308 1.47893 24.289 0.00265518 28.0001 -0.000244141L42.0001 -0.000244141V27.9997H28.011C24.298 27.9997 20.7371 26.5248 18.1116 23.8992C15.486 21.2737 14.011 17.7128 14.011 13.9998Z" fill="#F24E1E"/>
<path d="M42.011 -0.000244141H56.011C59.7241 -0.000244141 63.285 1.47475 65.9105 4.10026C68.536 6.72577 70.011 10.2867 70.011 13.9998C70.011 17.7128 68.536 21.2737 65.9105 23.8992C63.285 26.5248 59.7241 27.9997 56.011 27.9997H42.011V-0.000244141Z" fill="#FF7262"/>
<path d="M70.011 41.9998C70.011 45.7128 68.536 49.2737 65.9105 51.8992C63.285 54.5248 59.7241 55.9997 56.011 55.9997C52.298 55.9997 48.7371 54.5248 46.1116 51.8992C43.486 49.2737 42.011 45.7128 42.011 41.9998C42.011 38.2867 43.486 34.7258 46.1116 32.1003C48.7371 29.4748 52.298 27.9998 56.011 27.9998C59.7241 27.9998 63.285 29.4748 65.9105 32.1003C68.536 34.7258 70.011 38.2867 70.011 41.9998Z" fill="#1ABCFE"/>
</g>
<defs>
<clipPath id="clip0_5_1784">
<rect width="84" height="84" fill="white" transform="translate(0.00012207 -0.000244141)"/>
</clipPath>
</defs>
</svg>
