<svg width="94" height="94" viewBox="0 0 94 94" fill="none" xmlns="http://www.w3.org/2000/svg">
<g clip-path="url(#clip0_5_1036)">
<path d="M92.2257 42.814L51.1859 1.77416C50.6239 1.21193 49.9567 0.765934 49.2223 0.461643C48.488 0.157352 47.7008 0.000732422 46.9059 0.000732422C46.111 0.000732422 45.3239 0.157352 44.5895 0.461643C43.8552 0.765934 43.1879 1.21193 42.626 1.77416L34.1072 10.2929L44.9172 21.1029C47.4317 20.2217 50.3105 20.8238 52.3139 22.8272C53.2675 23.7826 53.9333 24.9869 54.2351 26.3026C54.5368 27.6184 54.4625 28.9924 54.0205 30.2679L64.4399 40.6872C66.9602 39.8177 69.8684 40.3788 71.8805 42.3968C72.5495 43.0659 73.08 43.8602 73.442 44.7344C73.8039 45.6085 73.9901 46.5454 73.99 47.4915C73.9898 48.4376 73.8033 49.3744 73.4412 50.2485C73.079 51.1225 72.5482 51.9167 71.8791 52.5856C71.21 53.2545 70.4157 53.785 69.5415 54.147C68.6674 54.5089 67.7305 54.6951 66.7844 54.695C65.8383 54.6948 64.9015 54.5084 64.0275 54.1462C63.1534 53.784 62.3593 53.2532 61.6904 52.5841C59.5754 50.4691 59.0525 47.3554 60.1217 44.7498L50.4045 35.0325V60.6035C51.1099 60.9526 51.7546 61.4128 52.3139 61.9665C52.9828 62.6354 53.5134 63.4295 53.8754 64.3034C54.2374 65.1774 54.4237 66.1141 54.4237 67.0601C54.4237 68.0061 54.2374 68.9428 53.8754 69.8167C53.5134 70.6907 52.9828 71.4848 52.3139 72.1537C51.645 72.8226 50.8508 73.3532 49.9769 73.7152C49.1029 74.0772 48.1662 74.2636 47.2202 74.2636C46.2743 74.2636 45.3376 74.0772 44.4636 73.7152C43.5896 73.3532 42.7955 72.8226 42.1266 72.1537C41.4569 71.4853 40.9256 70.6913 40.5631 69.8173C40.2006 68.9432 40.014 68.0063 40.014 67.0601C40.014 66.1139 40.2006 65.1769 40.5631 64.3029C40.9256 63.4289 41.4569 62.6349 42.1266 61.9665C42.8228 61.2732 43.5954 60.7474 44.4854 60.3949V34.586C43.6277 34.2335 42.8228 33.7136 42.1266 33.0145C41.1151 32.0042 40.4275 30.7157 40.1512 29.3131C39.875 27.9104 40.0227 26.4573 40.5756 25.139L29.9125 14.4818L1.77124 42.5937C1.20857 43.1557 0.762197 43.8231 0.457646 44.5577C0.153095 45.2923 -0.00366211 46.0798 -0.00366211 46.8751C-0.00366211 47.6703 0.153095 48.4578 0.457646 49.1924C0.762197 49.9271 1.20857 50.5945 1.77124 51.1565L42.814 92.1933C43.3759 92.7556 44.0432 93.2016 44.7775 93.5059C45.5119 93.8102 46.299 93.9668 47.0939 93.9668C47.8888 93.9668 48.676 93.8102 49.4103 93.5059C50.1447 93.2016 50.8119 92.7556 51.3739 92.1933L92.2257 51.4062C92.7883 50.8442 93.2347 50.1768 93.5393 49.4421C93.8438 48.7075 94.0006 47.92 94.0006 47.1248C94.0006 46.3295 93.8438 45.542 93.5393 44.8074C93.2347 44.0728 92.7883 43.4054 92.2257 42.8433" fill="#F03C2E"/>
</g>
<defs>
<clipPath id="clip0_5_1036">
<rect width="94" height="94" fill="white"/>
</clipPath>
</defs>
</svg>
