<svg width="119" height="119" viewBox="0 0 119 119" fill="none" xmlns="http://www.w3.org/2000/svg">
<g clip-path="url(#clip0_3_14)">
<path d="M101.547 23.3271L93.8862 109.152L59.4487 118.699L25.1062 109.165L17.4529 23.3271H101.547Z" fill="#E44D26"/>
<path d="M59.5001 111.402L87.3273 103.687L93.874 30.3455H59.5001V111.402Z" fill="#F16529"/>
<path d="M44.607 51.4013H59.5001V40.8736H33.1016L33.3534 43.698L35.9411 72.7096H59.5001V62.1818H45.5692L44.607 51.4013ZM46.9797 77.9736H36.4115L37.8863 94.5037L59.4517 100.49L59.5001 100.477V89.5235L59.454 89.5357L47.7293 86.3698L46.9797 77.9736Z" fill="#EBEBEB"/>
<path d="M25.2769 -0.00012207H30.627V5.28565H35.5211V-0.00012207H40.8715V16.0065H35.5215V10.6466H30.6273V16.0065H25.2772V-0.00012207H25.2769ZM47.9067 5.30807H43.1975V-0.00012207H57.9699V5.30807H53.2577V16.0065H47.9077V5.30807H47.9074H47.9067ZM60.3143 -0.00012207H65.8928L69.3244 5.62419L72.7526 -0.00012207H78.3334V16.0065H73.0051V8.07276L69.3244 13.764H69.2321L65.549 8.07276V16.0065H60.3143V-0.00012207ZM80.9959 -0.00012207H86.3477V10.7158H93.8713V16.0065H80.9956V-0.00012207H80.9959Z" fill="black"/>
<path d="M59.4639 72.7096H72.4276L71.2053 86.3632L59.4635 89.5324V100.485L81.046 94.5037L81.2043 92.725L83.6786 65.0088L83.9353 62.1818H59.4639V72.7096ZM59.4639 51.3756V51.4013H84.8933L85.1042 49.0351L85.5842 43.698L85.8357 40.8736H59.4639V51.3759V51.3756Z" fill="white"/>
</g>
<defs>
<clipPath id="clip0_3_14">
<rect width="119" height="119" fill="white"/>
</clipPath>
</defs>
</svg>
