<svg width="85" height="83" viewBox="0 0 85 83" fill="none" xmlns="http://www.w3.org/2000/svg">
<g clip-path="url(#clip0_5_1810)">
<path d="M15.0522 -0.000244141H69.948C78.271 -0.000244141 85.0001 6.73714 85.0001 15.0702V67.9055C85.0001 76.2386 78.271 82.9759 69.948 82.9759H15.0522C6.72929 82.9759 0.00012207 76.2386 0.00012207 67.9055V15.0702C0.00012207 6.73714 6.72929 -0.000244141 15.0522 -0.000244141Z" fill="#330000"/>
<path d="M41.0835 49.6437H27.9085L25.2168 57.9768C25.146 58.296 24.8626 58.5087 24.5439 58.4733H17.8855C17.496 58.4733 17.3897 58.2605 17.496 57.835L28.9001 24.9636C29.0064 24.609 29.1126 24.219 29.2543 23.7935C29.396 23.0488 29.4668 22.2687 29.4668 21.4886C29.4314 21.3113 29.573 21.134 29.7501 21.0985H38.923C39.2064 21.0985 39.348 21.2049 39.3835 21.3822L52.3105 57.9059C52.4168 58.296 52.3105 58.4733 51.9564 58.4733H44.5543C44.3064 58.5087 44.0585 58.3314 43.9876 58.0832L41.0835 49.6437ZM29.9626 42.4454H38.9585C38.746 41.7007 38.4626 40.8142 38.1439 39.8923C37.8251 38.9349 37.5064 37.9065 37.1876 36.8427C36.8335 35.7435 36.5147 34.6797 36.1605 33.5804C35.8064 32.4811 35.4876 31.4528 35.2043 30.4245C34.921 29.4316 34.673 28.5096 34.4251 27.6586H34.3543C34.0355 29.1834 33.646 30.7082 33.1501 32.2329C32.6189 33.935 32.0876 35.708 31.521 37.481C31.0251 39.2894 30.4939 40.9561 29.9626 42.4454ZM60.2085 27.304C59.0397 27.3395 57.9064 26.8785 57.0564 26.0629C56.2418 25.1764 55.8168 24.0062 55.8522 22.8006C55.8168 21.595 56.2772 20.4602 57.1272 19.6447C57.9772 18.8291 59.1105 18.4036 60.2793 18.4036C61.6605 18.4036 62.723 18.8291 63.5022 19.6447C64.2814 20.4957 64.7064 21.6304 64.671 22.8006C64.7064 24.0062 64.2814 25.1764 63.4314 26.0629C62.6168 26.9139 61.4126 27.3749 60.2085 27.304ZM56.2418 58.0832V30.7791C56.2418 30.4245 56.3835 30.2826 56.7022 30.2826H63.7147C64.0334 30.2826 64.1751 30.4599 64.1751 30.7791V58.0832C64.1751 58.4733 64.0334 58.6506 63.7147 58.6506H56.773C56.4189 58.6506 56.2418 58.4378 56.2418 58.0832Z" fill="#FF9A00"/>
</g>
<defs>
<clipPath id="clip0_5_1810">
<rect width="85" height="82.9762" fill="white" transform="translate(0.00012207 -0.000244141)"/>
</clipPath>
</defs>
</svg>
