<svg width="93" height="93" viewBox="0 0 93 93" fill="none" xmlns="http://www.w3.org/2000/svg">
<g clip-path="url(#clip0_5_71)">
<path d="M93.0001 -0.00012207H0.00012207V92.9999H93.0001V-0.00012207Z" fill="#F7DF1E"/>
<path d="M62.4725 72.6565C64.3458 75.7152 66.783 77.9634 71.0935 77.9634C74.7146 77.9634 77.0278 76.1536 77.0278 73.6529C77.0278 70.6563 74.6511 69.5949 70.6654 67.8515L68.4806 66.9141C62.1743 64.2275 57.9849 60.8617 57.9849 53.7465C57.9849 47.1922 62.9789 42.2027 70.7835 42.2027C76.3399 42.2027 80.3344 44.1365 83.213 49.1998L76.4078 53.5694C74.9094 50.8827 73.293 49.8243 70.7835 49.8243C68.2238 49.8243 66.6014 51.4481 66.6014 53.5694C66.6014 56.1911 68.2252 57.2525 71.9748 58.8763L74.1595 59.8122C81.5848 62.9963 85.7771 66.2425 85.7771 73.5407C85.7771 81.4088 79.5963 85.7193 71.2957 85.7193C63.1796 85.7193 57.9362 81.8517 55.3706 76.7825L62.4725 72.6565ZM31.6009 73.4138C32.9738 75.8495 34.2227 77.9088 37.2252 77.9088C40.0964 77.9088 41.9077 76.7854 41.9077 72.4174V42.7016H50.6468V72.5355C50.6468 81.5845 45.3413 85.7031 37.5972 85.7031C30.6001 85.7031 26.5479 82.082 24.4872 77.7206L31.6009 73.4138Z" fill="black"/>
</g>
<defs>
<clipPath id="clip0_5_71">
<rect width="93" height="93" fill="white"/>
</clipPath>
</defs>
</svg>
