<svg width="117" height="76" viewBox="0 0 117 76" fill="none" xmlns="http://www.w3.org/2000/svg">
<path d="M66.6082 19.1431C64.0261 8.30101 58.6443 5.41472 57.2714 3.3744C56.7053 2.4756 56.2038 1.54132 55.7704 0.578003C55.6979 1.54117 55.5646 2.14797 54.7045 2.87837C52.9775 4.34399 45.6426 10.0331 45.0253 22.352C44.4502 33.8378 53.8966 40.9203 55.1447 41.6523C56.1043 42.1018 57.2731 41.662 57.8432 41.2494C62.3969 38.2748 68.6186 30.3447 66.6133 19.1431" fill="#10AA50"/>
<path d="M56.1617 35.5364C55.9239 38.3793 55.7536 40.0312 55.1498 41.6557C55.1498 41.6557 55.5462 44.3622 55.8244 47.2292H56.8094C57.0443 45.2103 57.4031 43.2062 57.8837 41.2271C56.6087 40.6299 56.2107 38.031 56.1617 35.5364Z" fill="#B8C4C2"/>
<path d="M57.8819 41.2284C56.5934 40.6618 56.2207 38.0082 56.1633 35.5361C56.482 31.4581 56.5749 27.367 56.4416 23.2798C56.3742 21.1351 56.4737 3.41603 55.8867 0.821899C56.2882 1.70051 56.7508 2.55266 57.2714 3.37269C58.6443 5.41461 64.0278 8.30091 66.6082 19.143C68.6186 30.3254 62.4306 38.2346 57.8819 41.2284Z" fill="#12924F"/>
<path d="M114.905 69.6785C114.491 69.6784 114.088 69.5621 113.744 69.3442C113.4 69.1263 113.131 68.8165 112.972 68.4538C112.813 68.0911 112.769 67.6916 112.848 67.3056C112.927 66.9195 113.123 66.5642 113.413 66.2843C113.703 66.0044 114.074 65.8123 114.478 65.7323C114.883 65.6523 115.303 65.6878 115.686 65.8345C116.07 65.9812 116.399 66.2325 116.632 66.5567C116.866 66.881 116.994 67.2637 116.999 67.6569C117.007 67.9219 116.958 68.1857 116.856 68.4324C116.754 68.6791 116.6 68.9036 116.404 69.0924C116.209 69.2812 115.975 69.4304 115.717 69.5311C115.46 69.6318 115.183 69.682 114.905 69.6785ZM114.905 65.8708C114.527 65.8685 114.157 65.9728 113.842 66.1705C113.527 66.3683 113.281 66.6506 113.134 66.9817C112.988 67.3128 112.948 67.6779 113.02 68.0306C113.092 68.3833 113.272 68.7078 113.537 68.963C113.803 69.2182 114.142 69.3926 114.512 69.4642C114.882 69.5357 115.266 69.5012 115.615 69.3649C115.964 69.2286 116.263 68.9968 116.474 68.6987C116.685 68.4006 116.798 68.0498 116.799 67.6905C116.804 67.4517 116.758 67.2143 116.665 66.9926C116.572 66.7708 116.433 66.5691 116.256 66.3994C116.079 66.2297 115.869 66.0955 115.637 66.0047C115.404 65.9139 115.155 65.8684 114.905 65.8708ZM115.41 68.9453L114.869 67.8359H114.434V68.9453H114.117V66.4213H114.898C115.48 66.4213 115.723 66.6617 115.723 67.1268C115.723 67.497 115.54 67.7278 115.199 67.7987L115.757 68.9417L115.41 68.9453ZM114.446 67.5751H114.905C115.276 67.5751 115.417 67.4549 115.417 67.1328C115.417 66.8107 115.282 66.7013 114.864 66.7013H114.446V67.5751Z" fill="#21313C"/>
<path d="M83.7263 67.8618C84.2932 68.2933 85.4259 68.4712 86.4248 68.4712C87.7191 68.4712 88.9882 68.2428 90.2282 67.1767C91.4909 66.0842 92.3597 64.4123 92.3597 61.7429C92.3597 59.1781 91.3344 57.0964 89.2306 55.8777C88.0436 55.1673 86.5056 54.8873 84.7516 54.8873C84.2465 54.8873 83.7263 54.9125 83.4308 55.0399C83.3096 55.1309 83.2239 55.2578 83.1871 55.4005C83.134 55.8572 83.134 59.3355 83.134 61.392C83.134 63.5001 83.134 66.4399 83.1871 66.8005C83.2149 67.1058 83.3765 67.6418 83.7263 67.8666M78.3419 53.7455C78.8003 53.7455 80.5429 53.8212 81.3535 53.8212C82.8689 53.8212 83.9157 53.7455 86.748 53.7455C89.122 53.7455 91.1197 54.3548 92.5479 55.5219C94.2753 56.9449 95.1997 58.9245 95.1997 61.3367C95.1997 64.7645 93.5581 66.7452 91.9077 67.8618C90.2661 69.03 88.1308 69.6899 85.0888 69.6899C83.4699 69.6899 80.6906 69.6394 78.3709 69.6142H78.3229C78.2143 69.411 78.5212 68.619 78.7106 68.5986C79.342 68.5312 79.5087 68.5072 79.7991 68.393C80.289 68.2019 80.404 67.964 80.4583 67.1262C80.5391 65.5517 80.5126 63.6732 80.5126 61.5398C80.5126 60.017 80.5391 57.0459 80.486 56.106C80.404 55.32 80.0554 55.1169 79.3496 54.9642C78.849 54.863 78.3432 54.7868 77.8343 54.7358C77.7812 54.5832 78.1954 53.8945 78.3305 53.7455" fill="#21313C"/>
<path d="M101.886 55.0333C101.778 55.0585 101.643 55.3133 101.643 55.4395C101.615 56.3542 101.589 58.7399 101.589 60.3901C101.596 60.4217 101.612 60.4506 101.636 60.4733C101.66 60.4959 101.691 60.5113 101.724 60.5175C102.074 60.5428 102.938 60.5692 103.666 60.5692C104.692 60.5692 105.285 60.4418 105.608 60.2892C106.472 59.8829 106.871 58.9935 106.871 58.0296C106.871 55.8205 105.252 54.9828 102.852 54.9828C102.527 54.9789 102.203 54.9958 101.881 55.0333M108.005 65.1893C108.005 62.955 106.278 61.6858 103.121 61.6858C102.987 61.6858 101.984 61.6605 101.746 61.711C101.665 61.7363 101.584 61.7867 101.584 61.8384C101.584 63.4382 101.556 66.0018 101.638 67.0174C101.692 67.4489 102.017 68.0583 102.42 68.2361C102.852 68.4645 103.823 68.515 104.497 68.515C106.358 68.515 108.005 67.5258 108.005 65.1893ZM97.0114 53.7893C97.2552 53.7893 97.9724 53.865 99.8072 53.865C101.533 53.865 102.936 53.8145 104.606 53.8145C106.683 53.8145 109.542 54.5261 109.542 57.4707C109.542 58.913 108.463 60.0861 107.06 60.6449C106.98 60.6702 106.98 60.7207 107.06 60.7459C109.057 61.2267 110.81 62.3961 110.81 64.6304C110.81 66.8143 109.38 68.1857 107.303 69.0486C106.04 69.5823 104.471 69.7589 102.883 69.7589C101.67 69.7589 98.4169 69.6388 96.6086 69.658C96.4192 69.5823 96.7816 68.7686 96.9433 68.6424C97.3575 68.6303 97.7686 68.5689 98.1669 68.4597C98.8134 68.3082 98.8904 68.1099 98.9712 67.1953C99.0255 66.408 99.0255 63.5896 99.0255 61.5836C99.0255 58.8409 99.0533 56.9888 99.0255 56.0741C98.999 55.3638 98.7288 55.1342 98.2161 55.008C97.812 54.9311 97.1377 54.8554 96.5985 54.7797C96.4634 54.6523 96.8789 53.8903 97.0127 53.7893" fill="#21313C"/>
<path d="M0.252901 69.6779C0.183421 69.5154 0.155297 69.3395 0.170823 69.1647C0.164771 69.0455 0.193159 68.927 0.252901 68.8221C0.601823 68.7743 0.94755 68.7072 1.28836 68.6214C1.76568 68.5085 1.94499 68.2609 1.97277 67.6815C2.05106 66.3126 2.05611 63.7441 2.02833 61.9389V61.886C2.02833 61.6913 2.02833 61.4269 1.77578 61.2406C1.3319 60.9755 0.849985 60.7731 0.345082 60.6396C0.119049 60.5759 -0.00596362 60.4629 0.000350154 60.3307C0.00666393 60.1985 0.149355 60.0423 0.443576 59.987C1.22522 59.9113 3.27341 59.4461 4.07779 59.0928C4.16061 59.1955 4.19902 59.3245 4.18512 59.4533C4.18512 59.5327 4.17249 59.6168 4.16365 59.7033C4.14092 59.9581 4.11567 60.2478 4.11567 60.5363C4.12061 60.5713 4.13574 60.6043 4.15934 60.6316C4.18294 60.6589 4.21408 60.6794 4.24926 60.6908C4.28443 60.7022 4.32224 60.7039 4.35843 60.696C4.39462 60.688 4.42775 60.6706 4.45409 60.6456C5.98581 59.5026 7.35842 59.0952 8.06178 59.0952C9.21972 59.0952 10.1213 59.6216 10.8196 60.7057C10.8356 60.7319 10.8585 60.7537 10.8859 60.7691C10.9133 60.7844 10.9444 60.7928 10.9762 60.7935C11.0051 60.7932 11.0336 60.7863 11.0591 60.7733C11.0846 60.7603 11.1064 60.7417 11.1227 60.7189C12.5307 59.7021 13.926 59.0952 14.8604 59.0952C17.0677 59.0952 18.3873 60.6685 18.3873 63.3018C18.3873 64.059 18.3797 65.0193 18.3722 65.9148C18.3659 66.7008 18.3595 67.4376 18.3595 67.9472C18.3595 68.0674 18.5338 68.4135 18.7952 68.482C19.1185 68.6322 19.5844 68.7092 20.1741 68.8053H20.1969C20.241 68.9568 20.1476 69.5445 20.0579 69.6647C19.9115 69.6647 19.7094 69.6527 19.4569 69.6406C18.9985 69.619 18.3696 69.589 17.6385 69.589C16.1712 69.589 15.4047 69.6154 14.6723 69.6611C14.6167 69.4868 14.5978 68.9243 14.6647 68.8065C14.968 68.7614 15.2682 68.6992 15.5638 68.6202C16.031 68.4736 16.1661 68.2717 16.1952 67.6815C16.2065 67.2621 16.2912 63.5662 16.1409 62.6889C16.002 61.779 15.2822 60.7141 13.7076 60.7141C13.1229 60.7141 12.1796 60.9461 11.2805 61.5951C11.2248 61.6553 11.1934 61.7324 11.1921 61.8127V61.8307C11.2982 62.3042 11.2982 62.8571 11.2982 63.6924C11.2982 64.1732 11.2982 64.6744 11.2919 65.1756C11.2856 66.1948 11.2805 67.1563 11.2982 67.8835C11.2982 68.3786 11.6126 68.4976 11.8665 68.5926C12.0041 68.6214 12.1127 68.6467 12.2226 68.6707C12.4334 68.72 12.6532 68.7705 12.9802 68.8197C13.0286 69.0309 13.0243 69.2499 12.9676 69.4592C12.9542 69.5377 12.9218 69.6122 12.8729 69.6767C12.0571 69.6503 11.2199 69.6274 10.0115 69.6274C9.64527 69.6274 9.04799 69.6418 8.52016 69.6551C8.09208 69.6659 7.688 69.6767 7.45818 69.6779C7.39603 69.5383 7.36838 69.387 7.37736 69.2356C7.36446 69.093 7.39377 68.9497 7.46197 68.8221L7.7865 68.7657C8.06935 68.7176 8.31433 68.6767 8.54415 68.6214C8.94318 68.5012 9.09345 68.2945 9.12249 67.8101C9.20078 66.6804 9.26139 63.4244 9.09345 62.6095C8.80807 61.3019 8.02642 60.6384 6.76872 60.6384C6.03253 60.6384 5.10188 60.9761 4.3417 61.5182C4.26858 61.586 4.21098 61.6674 4.17251 61.7574C4.13405 61.8474 4.11556 61.9439 4.11819 62.041C4.11819 62.4292 4.11819 62.8908 4.11819 63.386C4.11819 65.0205 4.10683 67.0554 4.1485 67.9351C4.17376 68.2068 4.27478 68.5289 4.80892 68.6467C4.92636 68.6791 5.1284 68.7104 5.36327 68.7476C5.49838 68.7693 5.64613 68.7921 5.79892 68.8185C5.84749 69.1063 5.82281 69.401 5.72694 69.6779C5.49207 69.6779 5.2029 69.6635 4.87206 69.6503C4.36696 69.6286 3.73558 69.6022 3.02212 69.6022C2.1786 69.6022 1.59142 69.6286 1.12041 69.6503C0.803462 69.6647 0.529445 69.6767 0.255427 69.6779" fill="#21313C"/>
<path d="M27.3328 60.1827C26.8771 60.1737 26.4288 60.2938 26.0448 60.5276C25.1078 61.0697 24.6305 62.1526 24.6305 63.7439C24.6305 66.7222 26.1976 68.8027 28.4415 68.8027C29.0432 68.8209 29.63 68.6231 30.0856 68.2486C30.7751 67.7138 31.1413 66.6201 31.1413 65.0889C31.1413 62.155 29.6096 60.1827 27.3303 60.1827M27.7622 69.9073C23.7087 69.9073 22.2654 67.0768 22.2654 64.429C22.2654 62.5793 23.0597 61.1334 24.6267 60.1298C25.7243 59.4831 26.9842 59.1286 28.2748 59.1034C31.3673 59.1034 33.5279 61.2199 33.5279 64.2523C33.5279 66.3124 32.6654 67.9398 31.0327 68.9566C30.2485 69.4133 28.886 69.9073 27.7622 69.9073Z" fill="#21313C"/>
<path d="M68.5995 60.1827C68.1429 60.1728 67.6935 60.293 67.309 60.5276C66.372 61.0697 65.8947 62.1526 65.8947 63.7439C65.8947 66.7222 67.4618 68.8027 69.7057 68.8027C70.3091 68.8221 70.898 68.6243 71.3549 68.2486C72.0443 67.7138 72.4093 66.6201 72.4093 65.0889C72.4093 62.155 70.8788 60.1827 68.5995 60.1827ZM69.0314 69.9073C64.9779 69.9073 63.5346 67.0768 63.5346 64.4302C63.5346 62.5781 64.3289 61.1334 65.8972 60.1298C66.9942 59.4827 68.2537 59.1282 69.5441 59.1034C72.6365 59.1034 74.7971 61.2211 74.7971 64.2511C74.7971 66.3136 73.9347 67.9398 72.3019 68.9554C71.5177 69.4133 70.1552 69.9073 69.0314 69.9073Z" fill="#21313C"/>
<path d="M54.9518 60.0807C53.703 60.0807 52.8948 61.0194 52.8948 62.4725C52.8948 63.9256 53.5906 65.6527 55.5466 65.6527C55.8825 65.6527 56.4911 65.5109 56.7929 65.1948C57.2475 64.797 57.5506 63.9749 57.5506 63.1071C57.5506 61.2117 56.5808 60.0807 54.9581 60.0807M54.7965 70.1094C54.4437 70.1057 54.0958 70.1885 53.7863 70.3498C52.7976 70.9507 52.3392 71.5517 52.3392 72.25C52.3392 72.9038 52.6056 73.4242 53.1789 73.8858C53.8734 74.4458 54.8104 74.7187 56.0416 74.7187C58.4648 74.7187 59.5508 73.4783 59.5508 72.25C59.5508 71.3942 59.1 70.8209 58.1719 70.4964C57.4571 70.2476 56.2626 70.1106 54.8003 70.1106M54.9619 75.9999C53.5072 75.9999 52.4592 75.7078 51.5639 75.0516C50.6926 74.4122 50.3011 73.4627 50.3011 72.8064C50.3105 72.3835 50.48 71.9781 50.7784 71.6646C51.031 71.3906 51.6182 70.8774 52.9756 69.9892C52.9967 69.9807 53.0146 69.9664 53.0272 69.9483C53.0398 69.9301 53.0464 69.9088 53.0463 69.887C53.0468 69.8627 53.0385 69.839 53.0229 69.8198C53.0073 69.8006 52.9853 69.787 52.9605 69.7813C51.8429 69.3738 51.5058 68.6996 51.4035 68.339C51.4035 68.3258 51.4035 68.3053 51.3921 68.2825C51.3606 68.1407 51.3303 68.0061 51.5336 67.8678C51.6901 67.7621 51.9402 67.6203 52.2079 67.47C52.5858 67.2709 52.9483 67.0464 53.2926 66.7982C53.3111 66.7792 53.3248 66.7565 53.3327 66.7318C53.3405 66.707 53.3423 66.6809 53.3379 66.6553C53.3336 66.6298 53.3231 66.6056 53.3073 66.5845C53.2916 66.5634 53.271 66.5461 53.2471 66.5337C51.5929 66.0049 50.7595 64.8354 50.7595 63.0482C50.7544 62.4909 50.8907 61.9407 51.1566 61.4441C51.4226 60.9476 51.8105 60.5195 52.2874 60.1961C52.9529 59.6949 54.6235 59.0928 55.7057 59.0928H55.7688C56.8813 59.118 57.5089 59.3404 58.3777 59.6456C58.8719 59.8157 59.3955 59.8949 59.9208 59.8788C60.8413 59.8788 61.2441 59.6012 61.5901 59.2779C61.6462 59.4235 61.6761 59.5771 61.6785 59.7322C61.6997 60.1017 61.5942 60.4678 61.378 60.7754C61.1898 61.0242 60.7466 61.2045 60.3413 61.2045C60.2996 61.2045 60.2592 61.2045 60.215 61.1985C60.0017 61.1842 59.7903 61.1508 59.5836 61.0987L59.4801 61.1336C59.4472 61.1793 59.4687 61.2298 59.4952 61.2947C59.5017 61.3073 59.5068 61.3206 59.5104 61.3343C59.5843 61.6551 59.6345 61.9804 59.6607 62.3079C59.6607 64.1768 58.8866 64.9905 58.0494 65.5938C57.24 66.1719 56.2787 66.5263 55.2713 66.6179C55.2498 66.6179 55.145 66.6263 54.9481 66.6431C54.8218 66.6539 54.6576 66.6683 54.6336 66.6683H54.6096C54.4278 66.7164 53.953 66.9316 53.953 67.3318C53.953 67.6635 54.1677 68.0758 55.1943 68.1503L55.8585 68.1948C57.2122 68.2849 58.903 68.3967 59.6985 68.6527C60.2263 68.8293 60.682 69.1598 61.001 69.5972C61.32 70.0346 61.4859 70.5566 61.4752 71.0889C61.4752 72.7656 60.2226 74.3425 58.1251 75.3064C57.136 75.7561 56.053 75.9874 54.9569 75.9831" fill="#21313C"/>
<path d="M48.7566 68.7854C48.1631 68.7097 47.73 68.6328 47.2185 68.4044C47.1182 68.3055 47.0521 68.1797 47.0291 68.0439C46.9748 67.2566 46.9748 64.9718 46.9748 63.4767C46.9748 62.2567 46.7602 61.193 46.2172 60.4298C45.5694 59.5657 44.6526 59.0585 43.4656 59.0585C42.4138 59.0585 41.0108 59.7436 39.8516 60.6834C39.8238 60.7087 39.6458 60.8697 39.6496 60.6197C39.6534 60.3697 39.6938 59.8625 39.719 59.538C39.7303 59.4518 39.7201 59.3643 39.6894 59.2825C39.6587 59.2007 39.6083 59.1268 39.5423 59.0669C38.7846 59.4275 36.6594 59.9082 35.8727 59.9815C35.2994 60.0873 35.1542 60.6125 35.7666 60.794H35.7755C36.2657 60.9227 36.7336 61.1186 37.1645 61.3757C37.4069 61.5536 37.3804 61.8072 37.3804 62.0103C37.4069 63.711 37.4069 66.3264 37.3261 67.7482C37.2996 68.3071 37.1367 68.5102 36.7048 68.6124L36.7452 68.5992C36.4164 68.6776 36.0828 68.737 35.7464 68.777C35.6113 68.9032 35.6113 69.64 35.7464 69.7926C36.0166 69.7926 37.388 69.7169 38.5245 69.7169C40.0878 69.7169 40.8972 69.7926 41.3025 69.7926C41.4654 69.6148 41.5185 68.9297 41.4111 68.777C41.0376 68.761 40.6667 68.7098 40.3037 68.6244C39.8731 68.5234 39.7645 68.3191 39.738 67.8636C39.6849 66.6689 39.6849 64.1305 39.6849 62.4034C39.6849 61.9226 39.8188 61.693 39.9804 61.562C40.5196 61.1053 41.4111 60.8012 42.1928 60.8012C42.9504 60.8012 43.4555 61.0296 43.8344 61.3337C44.2756 61.7001 44.5522 62.2138 44.6072 62.7687C44.7145 63.7303 44.6867 65.6641 44.6867 67.336C44.6867 68.2506 44.6072 68.4802 44.2561 68.5811C44.0945 68.6568 43.6626 68.7338 43.1499 68.7842C42.9883 68.9369 43.0413 69.6472 43.1499 69.7999C43.8508 69.7999 44.6652 69.7241 45.8472 69.7241C47.3309 69.7241 48.2755 69.7999 48.653 69.7999C48.8147 69.622 48.869 68.9585 48.7616 68.7842" fill="#21313C"/>
</svg>
