<svg width="118" height="24" viewBox="0 0 118 24" fill="none" xmlns="http://www.w3.org/2000/svg">
<g clip-path="url(#clip0_5_129)">
<path d="M78.4429 0.00976562H98.9964V3.80984H90.8431V23.8015H86.7661V3.80984H78.4429V0.00976562Z" fill="black"/>
<path d="M44.6401 0.00976562V3.80984H28.165V9.923H41.4142V13.7231H28.165V20.0015H44.6401V23.8015H24.0883V3.80984H24.0866V0.00976562H44.6401Z" fill="black"/>
<path d="M54.9031 0.0197754H49.5679L68.6773 23.8116H74.028L64.4721 11.9239L74.0128 0.037927L68.6773 0.046186L61.801 8.60084L54.9031 0.0197754Z" fill="black"/>
<path d="M60.3778 17.0143L57.706 13.6868L49.5526 23.8297H54.9031L60.3778 17.0143Z" fill="black"/>
<path fill-rule="evenodd" clip-rule="evenodd" d="M24.2312 23.8016L5.09601 -0.00012207H0.00012207V23.7916H4.07684V5.08536L19.1097 23.8016H24.2312Z" fill="black"/>
<path d="M99.9129 23.6563C99.6143 23.6563 99.3603 23.5527 99.1477 23.3455C98.935 23.1383 98.8299 22.8874 98.8326 22.5902C98.8299 22.3012 98.935 22.0531 99.1477 21.8459C99.3603 21.6387 99.6143 21.535 99.9129 21.535C100.2 21.535 100.451 21.6387 100.664 21.8459C100.88 22.0531 100.987 22.3012 100.99 22.5902C100.987 22.7865 100.937 22.9665 100.838 23.1273C100.736 23.2909 100.606 23.4191 100.443 23.5118C100.283 23.6072 100.106 23.6563 99.9129 23.6563Z" fill="black"/>
<path d="M106.871 13.6334H108.678V20.6052C108.675 21.246 108.536 21.794 108.266 22.2548C107.993 22.7156 107.614 23.0673 107.128 23.3154C106.645 23.5608 106.078 23.6862 105.435 23.6862C104.846 23.6862 104.319 23.5799 103.849 23.3727C103.38 23.1654 103.007 22.8546 102.733 22.4456C102.457 22.0366 102.321 21.5268 102.321 20.916H104.131C104.134 21.1833 104.194 21.415 104.31 21.6086C104.426 21.8022 104.586 21.9494 104.791 22.053C104.998 22.1566 105.236 22.2084 105.504 22.2084C105.794 22.2084 106.042 22.1484 106.244 22.0257C106.445 21.9057 106.6 21.7258 106.708 21.4859C106.813 21.2487 106.868 20.9542 106.871 20.6052V13.6334Z" fill="black"/>
<path d="M116.111 16.36C116.067 15.9374 115.873 15.6075 115.536 15.373C115.196 15.1358 114.757 15.0186 114.218 15.0186C113.84 15.0186 113.514 15.0758 113.244 15.1876C112.973 15.3021 112.763 15.4548 112.619 15.6484C112.476 15.842 112.404 16.0628 112.398 16.311C112.398 16.5182 112.448 16.6981 112.545 16.8481C112.641 17.0008 112.771 17.1289 112.94 17.2325C113.105 17.3389 113.29 17.4261 113.492 17.497C113.696 17.5679 113.901 17.6279 114.105 17.677L115.047 17.9087C115.426 17.9959 115.793 18.1132 116.144 18.2632C116.495 18.4104 116.812 18.5985 117.091 18.8248C117.37 19.0511 117.591 19.3238 117.754 19.6428C117.917 19.9618 118 20.3353 118 20.7661C118 21.3469 117.851 21.8567 117.55 22.2984C117.249 22.7374 116.815 23.0809 116.246 23.3291C115.68 23.5745 114.995 23.6999 114.188 23.6999C113.409 23.6999 112.73 23.5799 112.158 23.34C111.584 23.1028 111.136 22.7538 110.813 22.2957C110.489 21.8377 110.315 21.2787 110.291 20.6216H112.081C112.106 20.9651 112.216 21.2515 112.404 21.4832C112.594 21.7122 112.843 21.8813 113.147 21.9958C113.454 22.1076 113.796 22.1648 114.174 22.1648C114.569 22.1648 114.917 22.1048 115.218 21.9876C115.517 21.8704 115.752 21.7068 115.92 21.4941C116.091 21.2842 116.177 21.0361 116.18 20.7525C116.177 20.4935 116.1 20.278 115.95 20.109C115.799 19.94 115.589 19.7982 115.321 19.6837C115.05 19.5692 114.735 19.4656 114.376 19.3756L113.233 19.0866C112.407 18.8766 111.752 18.5576 111.274 18.1296C110.793 17.7015 110.556 17.1344 110.556 16.4227C110.556 15.8393 110.716 15.3267 111.039 14.8877C111.359 14.4487 111.799 14.1079 112.354 13.8652C112.912 13.6199 113.542 13.4999 114.243 13.4999C114.956 13.4999 115.58 13.6199 116.119 13.8652C116.657 14.1079 117.08 14.446 117.387 14.8768C117.693 15.3076 117.854 15.8011 117.862 16.36H116.111Z" fill="black"/>
</g>
<defs>
<clipPath id="clip0_5_129">
<rect width="118" height="24" fill="white"/>
</clipPath>
</defs>
</svg>
