<svg width="108" height="23" viewBox="0 0 108 23" fill="none" xmlns="http://www.w3.org/2000/svg">
<path d="M20.246 22.9456C19.6338 22.9456 19.0377 22.706 18.5812 22.2488L4.69364 8.17123V20.5122C4.69364 21.8187 3.64106 22.8911 2.34682 22.8911C1.05258 22.8911 0 21.884 0 20.5122V2.43897C0 1.47543 0.574621 0.609871 1.44998 0.239696C2.32534 -0.130479 3.32958 0.0763826 4.00624 0.756851L17.8938 14.8344V2.43897C17.8938 1.13247 18.9464 0.0600525 20.2406 0.0600525C21.5349 0.0600525 22.5875 1.12703 22.5875 2.43897V20.5122C22.5875 21.8187 21.5349 22.8911 20.2406 22.8911M31.1047 0.0273898L30.4603 1.24679L25.4659 10.4358L24.8215 11.5954L25.4659 12.7549L30.4603 21.6445L31.1316 22.8639H44.1814L44.8259 21.5247L48.5528 13.9144L50.2176 10.4631H46.4369L36.9047 10.4903C35.6695 10.4739 34.5256 11.6117 34.5256 12.8692C34.5256 14.1267 35.6641 15.2644 36.9047 15.2481L42.6509 15.2209L41.2439 18.1061H33.8651L30.1972 11.5627L33.8919 4.78522H41.754L43.5799 8.59585H48.3058L45.3307 1.36655L44.6862 0.0273898H31.0994M54.8683 0.000170478C53.6331 0.0165017 52.5376 1.16513 52.5591 2.40631V8.61218H57.2527V2.40631C57.2688 1.14336 56.1787 -0.0161608 54.879 0.000170478M62.3975 22.9456C61.1086 22.9456 60.0506 21.8786 60.0506 20.5666V2.47707C60.0506 1.17058 61.1032 0.0981586 62.3975 0.0981586C63.6917 0.0981586 64.7443 1.16513 64.7443 2.47707V14.8725L78.6319 0.794957C79.3031 0.114489 80.3128 -0.0869288 81.1881 0.277802C82.0635 0.642533 82.6381 1.51353 82.6381 2.47707V20.6211C82.6381 21.9276 81.5855 23 80.2913 23C78.997 23 77.9445 21.933 77.9445 20.6211V8.22023L64.0569 22.2978C63.6165 22.7441 63.0204 22.9946 62.3921 22.9946M100.011 11.53L107.315 4.15919C108.228 3.23376 108.228 1.72584 107.32 0.794957C106.412 -0.135924 104.919 -0.13048 104.001 0.789514L96.6975 8.17668L89.3939 0.789514C88.481 -0.135923 86.988 -0.135924 86.0751 0.794957C85.1621 1.72584 85.1621 3.23376 86.0805 4.15919L93.3841 11.53L86.0858 18.8791C85.1729 19.8045 85.1729 21.3124 86.0805 22.2433C86.5208 22.6952 87.1169 22.951 87.6916 22.951C88.2662 22.951 88.8891 22.7224 89.3456 22.2542L96.6331 14.8888L103.921 22.2542C104.361 22.7006 104.957 22.951 105.575 22.951C106.192 22.951 106.778 22.7169 107.186 22.2433C108.099 21.3179 108.099 19.81 107.18 18.8791L99.9036 11.53M54.7609 22.9292C53.5257 22.9129 52.4302 21.7643 52.4517 20.5231V10.561H57.1453V20.5122C57.1614 21.7752 56.0713 22.9347 54.7716 22.9183" fill="#009900"/>
</svg>
