<svg width="108" height="66" viewBox="0 0 108 66" fill="none" xmlns="http://www.w3.org/2000/svg">
<path d="M33.4966 66V42.4695H34.7782V46.1709C34.9296 46.0067 35.0693 45.8324 35.1966 45.6491C36.267 43.4375 38.5248 42.0417 40.9897 42.0692C43.9119 41.9824 46.2865 43.0597 47.682 45.6491C48.57 47.2578 49.0587 49.0546 49.1072 50.8897C49.1557 52.7248 48.7627 54.5448 47.9609 56.1977C46.6608 59.0996 43.4495 60.5424 40.0115 60.0125C38.9416 59.9219 37.9115 59.5659 37.0153 58.9769C36.119 58.388 35.3852 57.5849 34.8808 56.6409V65.999L33.4966 66ZM34.7782 50.7932L35.0653 53.5562C35.5718 56.7011 37.439 58.5595 40.3704 58.9087C41.747 59.1341 43.1595 58.8771 44.3671 58.1814C45.5748 57.4858 46.5028 56.3947 46.993 55.094C48.1332 52.3881 48.0491 49.3249 46.7674 46.6824C46.2442 45.5164 45.3542 44.5517 44.2317 43.9341C43.1093 43.3164 41.8154 43.0794 40.5457 43.2588C39.3539 43.3451 38.2187 43.7989 37.2977 44.5572C36.3768 45.3155 35.7159 46.3406 35.4067 47.4901C35.1338 48.5779 34.9239 49.6804 34.7782 50.7922V50.7932ZM75.2768 53.9912C75.0824 55.648 74.2904 57.178 73.0481 58.2969C71.8058 59.4157 70.1977 60.0471 68.5229 60.0737C63.1481 60.3433 60.6258 56.7889 60.2249 52.6873C59.9461 50.4599 60.3092 48.1995 61.2718 46.1698C61.9417 44.7775 63.0394 43.6337 64.4057 42.9042C65.7721 42.1746 67.3362 41.8972 68.8715 42.1121C70.3311 42.2357 71.7146 42.8132 72.8264 43.7629C73.9382 44.7127 74.7219 45.9866 75.0666 47.4043C75.3396 48.6958 75.5406 50.0014 75.6684 51.315H61.5527C61.2912 55.0337 63.2978 58.0234 66.1421 58.7443C69.6846 59.6122 72.7124 58.0837 73.8116 54.7295C74.0556 53.8687 74.5006 53.7472 75.286 53.9912H75.2768ZM61.5424 50.1244H74.1684C74.0894 46.1627 71.6122 43.2833 68.2522 43.2506C64.4585 43.1893 61.7075 45.9534 61.5424 50.1244V50.1244ZM77.8862 54.078H79.1238C79.1693 54.986 79.4654 55.8638 79.9795 56.6151C80.4936 57.3663 81.2058 57.9617 82.0378 58.3359C83.0825 58.804 84.2197 59.0316 85.3649 59.0015C86.5101 58.9715 87.6338 58.6846 88.6522 58.1623C89.2074 57.9133 89.6725 57.5007 89.9846 56.9801C90.2966 56.4595 90.4407 55.856 90.3973 55.2512C90.4293 54.6679 90.2694 54.0902 89.9419 53.6056C89.6144 53.121 89.1371 52.7559 88.5825 52.5658C87.2209 52.0614 85.7731 51.7837 84.3858 51.3405C82.9423 50.9312 81.5307 50.4173 80.1625 49.8028C77.9273 48.7164 77.7888 44.4851 80.3194 43.1454C81.6151 42.4173 83.0733 42.0239 84.5609 42.0011C86.0485 41.9782 87.5181 42.3267 88.8358 43.0147C90.4701 43.9133 91.3734 45.7277 91.1048 47.5687H90.0436C90.0436 47.5176 89.9472 47.4727 89.9472 47.4206C89.816 44.0511 86.9717 42.9974 83.9183 43.2935C82.9955 43.3956 82.1209 43.6733 81.3006 44.0838C80.8075 44.308 80.3966 44.6794 80.1247 45.1464C79.8529 45.6134 79.7335 46.153 79.7831 46.6906C79.7841 47.2285 79.9525 47.753 80.265 48.1918C80.5775 48.6306 81.0188 48.9622 81.5282 49.1411C82.8611 49.6282 84.2761 49.9406 85.6552 50.3225L88.9875 51.1904C89.7449 51.438 90.409 51.9087 90.892 52.5402C91.3749 53.1718 91.654 53.9345 91.6923 54.7274C91.9589 56.5092 91.0464 58.2603 89.4325 59.0721C86.5185 60.7139 81.7189 60.28 79.5811 58.2041C78.4871 57.1085 77.877 55.6208 77.8893 54.077L77.8862 54.078ZM107.395 47.5697H106.235C106.235 47.4135 106.173 47.2634 106.156 47.1439C106.137 46.2775 105.82 45.4438 105.258 44.7825C104.695 44.1213 103.921 43.6727 103.066 43.512C101.453 43.0513 99.7325 43.1338 98.1714 43.7468C97.5541 43.9228 97.0106 44.2929 96.6221 44.802C96.2336 45.3111 96.021 45.9317 96.0162 46.5711C95.9941 47.1989 96.1904 47.8151 96.5719 48.3154C96.9534 48.8157 97.4967 49.1694 98.1099 49.3168L103.415 50.6727C103.989 50.8098 104.554 50.9809 105.107 51.1853C106.799 51.798 107.947 53.3622 107.998 55.1501C108.024 56.0253 107.783 56.8876 107.307 57.6238C106.831 58.36 106.143 58.9357 105.332 59.2752C104.101 59.8322 102.766 60.1269 101.414 60.1405C100.062 60.154 98.7216 59.8861 97.4793 59.3539C96.4577 58.9152 95.5955 58.1753 95.0089 57.2339C94.4223 56.2924 94.1394 55.1946 94.1982 54.0882H95.3323C95.7588 56.1355 97.1707 57.8406 99.1075 58.6473C101.044 59.4539 103.256 59.2558 105.018 58.1204C105.546 57.8467 105.985 57.4279 106.282 56.9136C106.579 56.3994 106.721 55.8111 106.693 55.2185C106.719 54.6349 106.554 54.0586 106.221 53.5771C105.889 53.0956 105.408 52.7352 104.851 52.5505C103.49 52.0461 102.042 51.7775 100.655 51.3252C99.2031 50.9222 97.783 50.4141 96.4058 49.8048C94.2239 48.7358 94.0496 44.5392 96.537 43.2006C97.8488 42.4419 99.3354 42.0343 100.852 42.0175C102.369 42.0007 103.864 42.3752 105.193 43.1046C105.953 43.5562 106.564 44.218 106.953 45.0095C107.342 45.801 107.491 46.688 107.383 47.5626L107.395 47.5697ZM31.3875 59.649C30.9306 59.821 30.4263 59.8205 29.9697 59.6477C29.5131 59.4748 29.1359 59.1415 28.9092 58.7106L24.3978 52.4974L23.7436 51.6295L18.5083 58.7198C18.2949 59.1321 17.9381 59.453 17.5045 59.6225C17.0709 59.792 16.5901 59.7985 16.152 59.6408L22.8967 50.6299L16.6217 42.4879C17.5527 42.153 18.5903 42.5165 19.1081 43.3558L23.7836 49.6456L28.4868 43.3803C28.7018 42.975 29.0588 42.6625 29.49 42.5023C29.9213 42.3421 30.3966 42.3453 30.8256 42.5113L28.3904 45.7287L25.0919 50.0039C25.0004 50.0854 24.9271 50.1851 24.877 50.2967C24.8268 50.4082 24.8009 50.5291 24.8009 50.6513C24.8009 50.7735 24.8268 50.8944 24.877 51.0059C24.9271 51.1175 25.0004 51.2172 25.0919 51.2987L31.3741 59.649H31.3875ZM60.025 42.4011V43.6264C59.1424 43.5687 58.2576 43.696 57.4275 44C56.5974 44.3039 55.8406 44.7779 55.2058 45.3911C54.571 46.0044 54.0724 46.7434 53.7422 47.5605C53.4119 48.3775 53.2574 49.2544 53.2885 50.1346C53.2885 52.9964 53.2885 55.8581 53.2885 58.7198V59.6929H52.0407V42.4777H53.2711V46.0054C54.7804 43.4324 57.1099 42.4777 60.0332 42.4082L60.025 42.4011ZM0.002051 50.5175L0.551629 47.8148C2.06092 42.4705 8.21291 40.2466 12.4455 43.5569C14.9237 45.4949 15.542 48.2406 15.421 51.3344H1.45905C1.23347 56.8604 5.23739 60.1973 10.3589 58.4941C12.0466 57.8815 13.317 56.4847 13.7353 54.7488C14.006 53.8809 14.4531 53.7319 15.2713 53.983C15.1348 55.041 14.7593 56.0544 14.1729 56.947C13.5864 57.8396 12.8044 58.5881 11.8856 59.1364C10.3677 59.9631 8.62613 60.2906 6.90997 60.0722C5.19382 59.8538 3.59095 59.1006 2.33058 57.9203C1.08378 56.5245 0.331182 54.7601 0.18456 52.8966C0.18456 52.5903 0.0820268 52.3044 0.0102536 52.0287C0.00341801 51.5134 0 51.0097 0 50.5175H0.002051ZM1.47648 50.1438H14.1024C14.0235 46.1382 11.4847 43.2965 8.09909 43.27C4.32997 43.2189 1.63335 45.9983 1.46725 50.1265L1.47648 50.1438Z" fill="black"/>
<path d="M85.9692 17.3099C85.7838 17.3099 85.6036 17.3482 85.4441 17.4385L80.3971 20.353C80.0705 20.5411 79.872 20.8966 79.872 21.2746V27.0933C79.872 27.4711 80.0705 27.826 80.3971 28.0147L81.7152 28.7743C82.3556 29.09 82.5918 29.0849 82.8832 29.0849C83.8313 29.0849 84.3725 28.5096 84.3725 27.5097V21.7692C84.3725 21.688 84.3022 21.6299 84.2225 21.6299H83.5903C83.5093 21.6299 83.4404 21.6895 83.4404 21.7692V27.5127C83.4404 27.9559 82.9787 28.4018 82.2296 28.0271L80.8594 27.2234C80.811 27.1971 80.7736 27.149 80.7736 27.0949V21.2762C80.7736 21.2211 80.8106 21.1648 80.8594 21.137L85.8958 18.2329C85.943 18.2057 85.9991 18.2057 86.0457 18.2329L91.0821 21.137C91.1301 21.1657 91.1679 21.2193 91.1679 21.2762V27.0949C91.1679 27.1505 91.14 27.2074 91.0928 27.2342L86.0459 30.1383C86.0012 30.1641 85.9416 30.1641 85.8959 30.1383L84.5993 29.3668C84.5606 29.3442 84.508 29.346 84.4708 29.3668C84.1129 29.5697 84.0456 29.5932 83.7101 29.7097C83.6274 29.7384 83.5016 29.7832 83.753 29.9241L85.446 30.922C85.6071 31.0152 85.7868 31.0612 85.9711 31.0612C86.158 31.0612 86.335 31.0165 86.4963 30.922L91.5432 28.0178C91.8698 27.8278 92.0683 27.4742 92.0683 27.0964V21.2777C92.0683 20.8997 91.8698 20.545 91.5432 20.3561L86.4963 17.4416C86.3381 17.3513 86.1567 17.3131 85.9711 17.3131L85.9692 17.3099ZM87.3194 21.4678C85.8822 21.4678 85.0263 22.0794 85.0263 23.0965C85.0263 24.1985 85.8758 24.5029 87.2552 24.6394C88.9053 24.801 89.034 25.0433 89.034 25.3681C89.034 25.9315 88.5849 26.1717 87.5231 26.1717C86.1893 26.1717 85.8961 25.8387 85.7979 25.1739C85.7863 25.1027 85.7315 25.0453 85.6587 25.0453H85.0034C84.9639 25.0462 84.9262 25.0623 84.8983 25.0902C84.8704 25.1182 84.8543 25.1558 84.8534 25.1953C84.8534 26.0447 85.3154 27.049 87.5216 27.049C89.1186 27.049 90.0397 26.4235 90.0397 25.3238C90.0397 24.2367 89.2957 23.9428 87.7467 23.7377C86.1829 23.5292 86.0322 23.4295 86.0322 23.0626C86.0322 22.76 86.1588 22.3552 87.3181 22.3552C88.3536 22.3552 88.7363 22.5786 88.8933 23.2768C88.907 23.3423 88.9648 23.396 89.0325 23.396H89.6878C89.728 23.396 89.7671 23.3712 89.7951 23.3423C89.8225 23.3115 89.8418 23.2768 89.8379 23.2351C89.7367 22.0326 88.9348 21.467 87.3198 21.467L87.3194 21.4678Z" fill="#83CD29"/>
<path d="M56.2979 9.6822C56.2415 9.6823 56.1861 9.69709 56.1372 9.72509C56.0885 9.75358 56.0481 9.79426 56.0199 9.84312C55.9917 9.89198 55.9768 9.94734 55.9765 10.0037V18.2011C55.9765 18.2816 55.939 18.3536 55.8693 18.394C55.8351 18.4139 55.7963 18.4244 55.7568 18.4244C55.7172 18.4244 55.6784 18.4139 55.6443 18.394L54.3048 17.6225C54.2071 17.566 54.0962 17.5362 53.9833 17.5362C53.8704 17.5362 53.7596 17.566 53.6618 17.6225L48.315 20.7085C48.1151 20.8238 47.9933 21.0457 47.9933 21.2764V27.4485C47.9931 27.5614 48.0228 27.6724 48.0792 27.7702C48.1357 27.8681 48.2169 27.9493 48.3148 28.0056L53.6618 31.0918C53.7595 31.1484 53.8704 31.1783 53.9833 31.1783C54.0962 31.1783 54.2071 31.1484 54.3048 31.0918L59.6518 28.0056C59.7497 27.9493 59.8309 27.8681 59.8874 27.7702C59.9439 27.6724 59.9735 27.5614 59.9733 27.4485V12.0611C59.9733 11.8269 59.8456 11.6073 59.6412 11.4932L56.4587 9.71422C56.4087 9.68637 56.3533 9.68146 56.2979 9.68205V9.6822ZM21.9011 17.3866C21.7991 17.3908 21.7033 17.4085 21.6117 17.4617L16.2648 20.5477C16.1669 20.6039 16.0856 20.6851 16.0291 20.783C15.9727 20.8808 15.9431 20.9919 15.9435 21.1048L15.9543 29.3881C15.9543 29.5034 16.0139 29.6103 16.1152 29.6666C16.2145 29.7262 16.3377 29.7262 16.4366 29.6666L19.6083 27.8449C19.8094 27.7258 19.9404 27.5179 19.9404 27.2879V23.4195C19.9404 23.1886 20.0618 22.9772 20.2621 22.8625L21.6123 22.0803C21.7099 22.0236 21.8208 21.994 21.9337 21.9945C22.0466 21.9939 22.1577 22.0235 22.2552 22.0803L23.6048 22.862C23.8049 22.9767 23.9262 23.1885 23.9262 23.419V27.2873C23.9262 27.5176 24.0603 27.7267 24.2584 27.8443L27.4301 29.666C27.5299 29.7256 27.6528 29.7256 27.7515 29.666C27.8498 29.6095 27.9123 29.5027 27.9123 29.3875L27.9231 21.1045C27.9237 20.9915 27.8943 20.8803 27.8378 20.7824C27.7813 20.6845 27.6998 20.6034 27.6017 20.5474L22.2548 17.4615C22.1644 17.4085 22.0682 17.3907 21.9654 17.3865H21.9014L21.9011 17.3866ZM69.9494 17.4617C69.8365 17.4614 69.7256 17.491 69.6279 17.5475L64.2808 20.6336C64.0813 20.749 63.9591 20.9601 63.9591 21.1906V27.3627C63.9591 27.5947 64.0899 27.805 64.2913 27.9197L69.5954 30.943C69.7912 31.0547 70.0303 31.0632 70.2276 30.9534L73.4423 29.1639C73.5443 29.1073 73.6132 29.0015 73.6135 28.8854C73.6138 28.7692 73.5535 28.6646 73.4527 28.6069L68.0733 25.5207C67.9727 25.4632 67.9021 25.3469 67.9021 25.2314V23.3014C67.9021 23.1861 67.9736 23.0804 68.0733 23.0229L69.7449 22.0584C69.8444 22.0009 69.9665 22.0009 70.0666 22.0584L71.7389 23.0229C71.7879 23.051 71.8286 23.0916 71.8568 23.1405C71.885 23.1894 71.8998 23.2449 71.8996 23.3014V24.823C71.8995 24.8795 71.9143 24.935 71.9425 24.9839C71.9707 25.0328 72.0114 25.0734 72.0603 25.1015C72.1606 25.1593 72.2819 25.1596 72.382 25.1015L75.5858 23.2373C75.7846 23.1218 75.9075 22.9101 75.9075 22.6803V21.191C75.9075 21.0781 75.8778 20.9672 75.8213 20.8694C75.7649 20.7716 75.6837 20.6904 75.5859 20.6339L70.2711 17.5478C70.1734 17.4912 70.0624 17.4616 69.9496 17.462L69.9494 17.4617ZM53.9618 22.0696C53.9917 22.0695 54.0212 22.0768 54.0476 22.0909L55.8799 23.1517C55.9296 23.1805 55.9656 23.2336 55.9656 23.291V25.4126C55.9656 25.4702 55.9299 25.5233 55.8799 25.5519L54.0476 26.6127C53.9977 26.641 53.9368 26.641 53.8867 26.6127L52.0545 25.5519C52.0046 25.5231 51.9687 25.4699 51.9687 25.4126V23.2907C51.9687 23.2332 52.0047 23.1805 52.0545 23.1514L53.8867 22.0907C53.9118 22.0763 53.9338 22.0694 53.9618 22.0694V22.0693V22.0696Z" fill="#404137"/>
<path d="M37.9638 17.4294C37.8509 17.4292 37.7399 17.4587 37.6421 17.5151L32.2951 20.5905C32.0952 20.7058 31.9737 20.9279 31.9737 21.1584V27.3305C31.9734 27.4434 32.0029 27.5544 32.0594 27.6523C32.1158 27.7501 32.1971 27.8312 32.2951 27.8875L37.6421 30.9736C37.7397 31.0303 37.8506 31.0602 37.9635 31.0602C38.0765 31.0602 38.1874 31.0303 38.285 30.9736L43.632 27.8875C43.7299 27.8311 43.8112 27.7499 43.8676 27.6521C43.9241 27.5543 43.9537 27.4433 43.9536 27.3304V21.1583C43.9536 20.9274 43.832 20.7055 43.6319 20.5904L38.2849 17.515C38.1872 17.4583 38.0761 17.4287 37.9632 17.4292L37.9638 17.4294ZM69.939 22.9372C69.9177 22.9372 69.894 22.9372 69.8747 22.9476L68.846 23.5478C68.8268 23.5585 68.8108 23.574 68.7995 23.5928C68.7882 23.6116 68.7821 23.633 68.7817 23.6549V24.8337C68.7817 24.8781 68.8074 24.9186 68.846 24.9409L69.8747 25.5302C69.8923 25.5412 69.9127 25.547 69.9335 25.547C69.9543 25.547 69.9746 25.5412 69.9923 25.5302L71.021 24.9409C71.0591 24.919 71.0853 24.8781 71.0853 24.8337V23.6549C71.0853 23.6105 71.0592 23.57 71.021 23.5477L69.9923 22.9475C69.9732 22.9362 69.9601 22.9371 69.9387 22.9371L69.939 22.9372Z" fill="#83CD29"/>
</svg>
