<svg width="85" height="83" viewBox="0 0 85 83" fill="none" xmlns="http://www.w3.org/2000/svg">
<g clip-path="url(#clip0_5_1800)">
<path d="M15.0522 -0.000244141H69.948C78.271 -0.000244141 85.0001 6.73907 85.0001 15.0745V67.925C85.0001 76.2604 78.271 82.9998 69.948 82.9998H15.0522C6.72929 82.9998 0.00012207 76.2604 0.00012207 67.925V15.0745C0.00012207 6.73907 6.72929 -0.000244141 15.0522 -0.000244141Z" fill="#001E36"/>
<path d="M19.1251 58.2062V21.7075C19.1251 21.4592 19.2314 21.3173 19.4793 21.3173C20.0814 21.3173 20.648 21.3173 21.4626 21.2818C22.3126 21.2464 23.198 21.2464 24.1543 21.2109C25.1105 21.1754 26.1376 21.1754 27.2355 21.14C28.3335 21.1045 29.396 21.1045 30.4585 21.1045C33.3626 21.1045 35.771 21.4592 37.7543 22.2041C39.5251 22.8071 41.1543 23.8002 42.5001 25.1126C43.6335 26.2477 44.5189 27.631 45.0855 29.1562C45.6168 30.6459 45.9001 32.1712 45.9001 33.7673C45.9001 36.8177 45.1918 39.3361 43.7751 41.3224C42.3585 43.3088 40.3751 44.7985 38.073 45.6498C35.6647 46.5365 33.0085 46.8558 30.1043 46.8558C29.2543 46.8558 28.6876 46.8558 28.3335 46.8203C27.9793 46.7848 27.4835 46.7848 26.8105 46.7848V58.1707C26.846 58.419 26.6689 58.6318 26.421 58.6673C26.3855 58.6673 26.3501 58.6673 26.2793 58.6673H19.5501C19.2668 58.6673 19.1251 58.5254 19.1251 58.2062ZM26.846 28.163V40.081C27.3418 40.1165 27.8022 40.1519 28.2272 40.1519H30.1043C31.4855 40.1519 32.8668 39.9391 34.1772 39.5135C35.3105 39.1942 36.3022 38.5203 37.0814 37.6336C37.8251 36.7468 38.1793 35.5408 38.1793 33.9801C38.2147 32.8806 37.9314 31.781 37.3647 30.8233C36.7626 29.9011 35.9126 29.1917 34.8855 28.8015C33.5751 28.2694 32.1585 28.0566 30.7064 28.0921C29.7855 28.0921 28.971 28.0921 28.298 28.1276C27.5897 28.0921 27.0939 28.1276 26.846 28.163Z" fill="#31A8FF"/>
<path d="M68.0001 37.9174C66.9376 37.3498 65.8043 36.9597 64.6001 36.7114C63.2897 36.4276 61.9793 36.2503 60.6334 36.2503C59.9251 36.2148 59.1814 36.3212 58.5084 36.4986C58.048 36.605 57.6584 36.8533 57.4105 37.208C57.2334 37.4917 57.1272 37.8464 57.1272 38.1657C57.1272 38.4849 57.2689 38.8041 57.4814 39.0879C57.8001 39.478 58.2251 39.7973 58.6855 40.0456C59.5001 40.4712 60.3501 40.8614 61.2001 41.2161C63.1126 41.8545 64.9543 42.7413 66.6543 43.8054C67.823 44.5503 68.7793 45.5434 69.4522 46.7494C70.0189 47.8845 70.3022 49.1259 70.2668 50.4028C70.3022 52.0699 69.8064 53.737 68.8855 55.1204C67.8939 56.5392 66.5126 57.6387 64.9189 58.2772C63.1834 59.0221 61.0584 59.4122 58.5084 59.4122C56.8793 59.4122 55.2855 59.2704 53.6918 58.9511C52.4522 58.7383 51.2126 58.3481 50.0793 57.8161C49.8314 57.6742 49.6543 57.4259 49.6897 57.1422V50.9704C49.6897 50.8639 49.7251 50.7221 49.8314 50.6511C49.9376 50.5802 50.0439 50.6157 50.1501 50.6866C51.5314 51.5024 52.9834 52.0699 54.5418 52.4246C55.8876 52.7793 57.3043 52.9567 58.7209 52.9567C60.0668 52.9567 61.023 52.7793 61.6605 52.4601C62.2272 52.2118 62.6168 51.6088 62.6168 50.9704C62.6168 50.4738 62.3334 50.0127 61.7668 49.5515C61.2001 49.0904 60.0314 48.5584 58.2959 47.8845C56.4897 47.246 54.8251 46.3947 53.2668 45.3306C52.1689 44.5503 51.248 43.5216 50.5751 42.3157C50.0084 41.1806 49.7251 39.9392 49.7605 38.6977C49.7605 37.1725 50.1855 35.7182 50.9647 34.4058C51.8501 32.987 53.1605 31.852 54.6834 31.1426C56.348 30.2913 58.4376 29.9011 60.9522 29.9011C62.4043 29.9011 63.8918 30.0075 65.3439 30.2204C66.4064 30.3622 67.4334 30.646 68.3897 31.0362C68.5314 31.0716 68.673 31.2135 68.7439 31.3554C68.7793 31.4973 68.8147 31.6392 68.8147 31.781V37.5627C68.8147 37.7045 68.7439 37.8464 68.6376 37.9174C68.3189 37.9883 68.1418 37.9883 68.0001 37.9174Z" fill="#31A8FF"/>
</g>
<defs>
<clipPath id="clip0_5_1800">
<rect width="85" height="83" fill="white" transform="translate(0.00012207 -0.000244141)"/>
</clipPath>
</defs>
</svg>
