<svg width="96" height="96" viewBox="0 0 96 96" fill="none" xmlns="http://www.w3.org/2000/svg">
<g clip-path="url(#clip0_5_1029)">
<path d="M46.9921 0.0928623H46.5061C45.5656 0.125862 44.6266 0.221862 43.6861 0.352362L40.9966 0.742362L37.7866 1.06636L34.7416 1.55236C34.3846 1.61686 34.0291 1.74736 33.6721 1.81186C32.8921 1.97386 32.0821 2.03686 31.3066 2.29786L27.1576 3.72286L23.4676 5.44036C22.2376 6.12136 21.0676 6.93136 19.9021 7.70836L16.6291 10.0739C15.5941 10.8839 14.6191 11.7914 13.6801 12.6989C13.1611 13.2179 12.7396 13.8329 12.2551 14.4164L9.85513 17.2364L8.00713 19.7324C6.90463 21.2234 5.96713 22.8119 5.08963 24.3974L4.08763 26.3414L2.62963 29.2589C2.30195 29.9569 2.0403 30.6841 1.84813 31.4309L0.525129 36.2294C0.135129 37.6544 0.0391288 39.1469 0.00612883 40.6049C-0.0268712 41.9009 0.100629 43.1654 0.231129 44.4599C0.264129 44.7839 0.0691288 45.1724 0.456129 45.4319C0.489129 45.4319 0.456129 45.5609 0.423129 45.5939C0.325629 45.7889 0.423129 45.9839 0.618129 46.0469C0.618129 46.0469 0.654129 46.0799 0.654129 46.1114H0.492129C0.394629 46.4024 0.717129 46.6304 0.586629 46.9544C0.553629 47.0189 0.684129 47.1494 0.748629 47.2454C0.748629 47.3429 0.715629 47.4704 0.748629 47.5694C0.781629 47.8604 0.910629 48.1544 0.910629 48.4769C0.910629 48.7019 1.10863 48.9629 1.17313 49.1894C1.20613 49.2869 1.17313 49.4489 1.10563 49.5134C0.910629 49.7384 0.943629 49.9334 1.23463 50.0639C1.29913 50.0969 1.39663 50.2259 1.39663 50.2889C1.39663 50.4839 1.33663 50.6789 1.30213 50.8739C1.36663 50.9384 1.39663 51.0029 1.36213 51.0689C1.36213 51.1664 1.26763 51.2639 1.30213 51.3284C1.56163 51.8474 1.65613 52.4309 1.68763 53.0144C1.68763 53.1434 1.75513 53.2739 1.82263 53.4344C1.85563 53.4344 1.94863 53.4344 2.01313 53.4674L1.82263 54.0524C1.98463 53.9549 2.11363 53.9234 2.27563 53.8574L2.59963 55.0244C2.63263 55.0889 2.69713 55.1534 2.79463 55.2194C2.76163 55.2839 2.75863 55.4144 2.69413 55.4444C2.82313 56.0294 2.89213 56.5784 3.11863 57.1304C3.15163 57.1304 3.17863 57.0974 3.21313 57.0974L2.95813 55.3154V55.1204C2.95813 55.1204 3.01813 55.0874 3.05263 55.0874C3.08563 55.2164 3.15013 55.3784 3.15013 55.4774C3.40963 55.4774 3.80113 55.6394 4.06063 55.6394L4.15513 55.3484C3.96013 55.1534 3.80113 54.8624 3.60763 54.6674C3.67213 54.9269 3.60763 55.0244 3.60763 55.1204C3.47863 55.0559 3.31213 54.9914 3.15013 54.9254L3.60763 54.4064C3.60763 54.1154 3.45763 53.8559 2.98813 53.8874L3.60763 53.6624L3.70213 53.9219C3.96163 53.4689 3.57613 53.1119 3.57613 52.6574C3.60913 52.1069 3.28063 51.5549 3.18613 50.9714C3.02413 50.0639 3.06013 48.7034 2.96113 47.7959C2.96113 47.7314 2.86363 47.6669 2.79913 47.6009C2.76613 47.6339 2.60113 48.0539 2.56963 48.0869L2.82913 50.4209C2.79613 50.4209 2.76913 50.4209 2.76913 50.4539L2.34463 48.2819C2.31163 48.5069 2.28463 48.6059 2.28463 48.7349C2.18713 48.7019 2.15563 48.6704 1.99363 48.6059L2.34763 49.3184C2.12263 49.2209 1.86163 49.2539 1.86163 49.2539V50.1614C1.53763 49.8374 1.44163 49.5764 1.27663 49.3514L1.11463 48.5714L1.21213 48.5384C1.17913 48.4094 1.11463 48.3134 1.11463 48.2144L1.02013 47.4344C1.05313 47.4014 1.17913 47.3699 1.24513 47.3054L0.990129 46.9154L1.57063 46.9799C1.57063 46.9154 1.60363 46.8824 1.57063 46.8509C1.24663 46.5599 1.47313 46.3004 1.60363 46.0409C1.66813 45.9119 1.89913 45.8789 1.96363 45.7499C2.22313 45.2639 2.64463 44.8754 2.64463 44.2589C2.64463 43.9679 2.74213 43.6439 2.77363 43.3514L2.93563 41.6984C3.00013 40.9859 2.93563 40.2734 3.09763 39.5924L4.03363 36.1874L4.91263 33.7874L6.45013 30.0719L9.30013 24.9194L11.2501 21.8099L13.2946 18.8279C14.3296 17.4989 15.4666 16.2674 16.7446 15.1649L20.6626 11.7149C22.4626 10.3199 24.3931 9.08986 26.4286 8.02036C28.0501 7.15786 29.7826 6.47986 31.5001 5.83036C32.6026 5.41036 33.8011 5.21536 34.9501 4.85836C36.2461 4.43836 37.5451 4.24336 38.9041 4.21036L41.4991 3.98536L43.8991 3.76036C43.8016 3.88936 43.7701 3.95536 43.7371 4.01986L42.6346 5.57536L41.7271 6.87136L40.1551 8.93986L37.9501 12.1799L35.5201 15.1949L32.3761 19.4099L29.4271 23.3309L27.0271 26.9279L23.4331 32.2424L20.5831 36.2924C20.5186 36.3899 20.4331 36.4214 20.3206 36.4874C20.2561 36.5519 20.1301 36.6164 20.1301 36.6824C20.0656 36.9074 20.0656 37.1354 19.9681 37.3304L19.1581 38.7554C18.9961 39.0149 18.7681 39.2414 18.5731 39.5009C18.5086 39.4679 18.4756 39.4364 18.4111 39.4364C18.5401 39.1124 19.0951 38.9174 18.8356 38.4314L18.3496 39.1769L17.9596 39.9569C18.0856 40.0544 18.2941 40.1189 18.1126 40.3139C18.0796 40.2164 17.9731 40.1849 17.8951 40.1189L17.1151 41.2859C17.3101 41.4479 17.4106 41.3834 17.5396 41.1569C17.6446 40.9619 17.7886 40.7999 17.9296 40.6064C17.8846 40.7039 17.8426 40.7684 17.7946 40.8314C17.8276 40.8314 17.8306 40.8644 17.8621 40.8644L18.1531 40.5074C18.1861 40.5074 18.2131 40.5404 18.2476 40.5404C18.1501 40.8644 17.9566 41.1554 17.7946 41.4479C17.6656 41.7074 17.3416 41.9009 17.1136 42.0959C17.1466 42.1289 17.3731 42.2249 17.4046 42.2579C17.5021 42.1289 17.5336 42.1934 17.6296 42.0629C17.6941 42.1604 17.7796 41.9984 17.8276 42.0959C17.9251 41.9669 18.0181 41.8709 18.0526 41.7719C18.1816 41.4479 18.3766 41.1869 18.7006 41.0594C18.8296 40.9949 18.9256 40.8974 19.0246 40.7999L21.8806 37.7549L25.7626 32.6999L27.5446 30.5939C27.6091 30.6269 27.6736 30.6269 27.7066 30.6584L27.5446 32.7329L27.2851 36.3629L27.2521 37.8209C27.2521 37.9499 27.1546 38.0459 27.1546 38.1779C27.1546 38.5019 27.2521 38.8589 27.2521 39.1829L26.9281 42.7484C26.8951 43.0079 27.0256 43.2674 27.0901 43.4939C27.0571 43.4609 27.0256 43.4294 26.9281 43.3649C26.9281 45.2444 27.2851 47.0924 26.9926 48.9389C27.1216 48.9059 27.1876 48.8744 27.1876 48.8099C27.2206 48.5849 27.2851 48.3569 27.2851 48.1289C27.3181 47.9339 27.2851 47.7389 27.2851 47.5139V47.1899C27.3181 46.6049 27.4471 45.9899 27.3826 45.4079C27.3181 44.7599 27.3181 44.1434 27.4471 43.5284C27.5116 43.2689 27.4141 42.9434 27.5761 42.6209V43.1069C27.5431 44.9549 27.6091 46.8014 27.3511 48.6494C27.3181 48.8114 27.4486 49.1024 27.0916 49.0694C27.0586 49.0694 27.0271 49.2314 26.9626 49.3289C26.8006 49.6529 27.1576 50.0744 26.8336 50.3984C26.7691 50.4629 26.8981 50.7554 26.9311 50.9489C26.9311 51.0134 26.9641 51.0779 26.9311 51.1109C26.8021 51.3359 26.8021 51.3359 26.9956 51.3704L27.1246 53.4104H27.2221C27.6421 52.1804 27.3841 50.9144 27.6121 49.6514L27.6451 51.2414L27.5806 53.7374C27.5806 53.8994 27.5476 54.0614 27.5161 54.2234C27.4186 54.6764 27.3871 55.1309 27.2251 55.5524C27.0961 55.8764 27.1606 56.3624 27.1606 56.7524V57.9824C27.1606 58.0154 27.2581 58.1114 27.2581 58.2419C27.2911 58.5329 27.1291 58.8269 27.2251 59.1494C27.2581 59.2139 27.1921 59.3114 27.1606 59.3744C27.1276 59.4719 27.0961 59.5694 27.1276 59.6654L27.2251 60.1514C27.2251 60.1844 27.2581 60.2159 27.2896 60.2804C27.3226 60.1514 27.3226 60.0554 27.3226 60.0209C27.8731 60.0854 27.5821 60.5714 27.8416 60.8309C27.7126 60.8954 27.6166 60.9284 27.6166 60.9599C27.6496 61.0889 27.7141 61.1849 27.7141 61.3169C27.7141 61.6079 27.6811 61.8674 27.6496 62.1599L27.6166 64.3649C27.6166 64.4624 27.6496 64.5599 27.6496 64.6559C27.6496 64.7204 27.6166 64.7849 27.6166 64.8809V65.5619H27.7456C27.6811 65.6594 27.6166 65.7569 27.5206 65.8529C27.4876 65.8529 27.3916 65.8529 27.3916 65.8199V61.7369H26.9056C26.8411 63.6809 27.0031 65.4314 26.6461 67.2464C26.2561 67.2794 26.1271 67.3439 25.7056 67.3439L22.6981 67.3769L19.1326 67.4099L17.3506 67.4744C16.5706 67.4744 15.7606 67.3769 14.9806 67.3769L11.4151 67.5059L8.79313 67.5704L7.03813 67.6994C6.77863 67.7324 6.55213 67.8284 6.22813 67.9244C6.13063 67.9244 5.90713 67.8914 5.71213 67.9244C5.38813 67.9889 5.09263 68.1839 4.76713 68.2484C4.28113 68.3459 4.15513 68.4734 4.21963 68.9609V69.2849C4.15513 69.2204 4.06963 69.1559 3.99013 69.1229C3.95713 69.1229 3.93013 69.1559 3.93013 69.1559C3.96313 69.2534 4.02763 69.3179 4.05913 69.4154C4.18813 69.3509 4.34713 69.1904 4.47913 69.1904H4.93213C4.86763 69.1904 4.83763 69.3854 4.74163 69.5474L5.32213 69.3224C5.34612 69.4068 5.35824 69.4941 5.35813 69.5819C5.81113 69.5489 6.22813 69.4199 6.61813 69.5174C7.88263 69.8414 9.17863 69.9704 10.4731 70.1024L12.9721 70.2314L16.5691 70.3604L19.5481 70.2629L23.7286 70.3604L24.6736 70.3274H27.0331L33.3526 70.1654L36.9826 70.0364L40.6771 69.9389L44.9221 69.8744L48.0976 69.8099L51.7276 69.6149L56.0386 69.2579L59.5711 69.0959L63.9781 68.8364L68.0941 68.7719L71.7241 68.6429L75.8071 68.4479L79.3066 68.2229L81.5416 68.1899L85.1716 68.0924C85.6246 68.0924 86.1121 68.1569 86.6941 68.1899L86.0791 68.7089C86.2081 68.7419 86.3386 68.8064 86.4691 68.8709C86.4691 68.9039 86.4361 68.9354 86.4361 68.9999C86.2741 68.9999 86.1121 69.0329 85.9501 69.0329C85.8856 69.1949 85.8211 69.2579 85.7551 69.5834H86.3401C86.1151 69.5834 85.9201 69.8744 85.6921 70.0694C85.7251 70.1024 85.7566 70.1024 85.7896 70.1339C85.4326 70.0049 85.2046 70.0694 85.0771 70.4249C85.1746 70.4579 85.2391 70.4579 85.3366 70.4579L85.2391 70.7819C85.2061 70.8464 85.1746 70.9109 85.1746 71.0069L85.0771 70.9094C85.0771 70.8449 85.0771 70.7804 85.0441 70.7144C84.8491 70.9094 84.5581 71.0384 84.7201 71.4599L84.2671 71.6849C84.3001 71.7494 84.3646 71.8139 84.3961 71.9099C84.1051 71.9429 83.8111 72.0074 83.8771 72.3629C84.0061 72.3959 84.1366 72.4604 84.2341 72.4919C84.0721 72.5564 83.9101 72.6539 83.7481 72.7169C83.7151 72.7814 83.6836 72.9419 83.6191 72.9764C83.1661 73.0739 83.4241 73.2359 83.5546 73.3964C83.4571 73.4609 83.3596 73.5254 83.2636 73.5584C83.3611 73.5914 83.4256 73.6229 83.4886 73.6874C83.4162 73.7356 83.3406 73.7787 83.2621 73.8164C83.3266 73.8494 83.4241 73.9139 83.4571 73.9139C83.3596 73.9784 83.2621 74.0759 83.1331 74.1734C83.1331 74.1404 83.1661 74.1089 83.1661 74.0759H83.0371C83.0371 74.1404 83.0371 74.2049 83.0701 74.2379C83.0371 74.2709 83.0056 74.2709 82.9726 74.3024C82.9726 74.3669 82.9726 74.3999 83.0056 74.4644C82.8605 74.6012 82.7302 74.753 82.6171 74.9174C82.4881 75.1124 82.4221 75.3704 82.2601 75.5654C81.5791 76.3109 81.0931 77.1854 80.2201 77.7704C79.8961 77.9954 79.6051 78.2894 79.3126 78.5804L77.5951 80.2664C76.7804 80.9398 75.9371 81.5779 75.0676 82.1789L71.8576 84.3839C71.2726 84.7739 70.6276 85.0649 70.0096 85.4189L68.2096 86.4539C67.8196 86.7134 67.4641 87.0689 67.0426 87.2639L63.7366 88.5284L63.4771 88.6259L61.0771 89.6609C60.3316 89.9204 59.5546 90.1139 58.7761 90.2759C58.5166 90.3404 58.2256 90.2759 57.9331 90.3089L56.2801 90.5999L52.0021 91.1189L49.5061 91.4759C48.9211 91.5089 48.3061 91.4429 47.7241 91.4429C47.3041 91.4429 46.8496 91.5404 46.4281 91.4759L44.3881 91.0859C44.2261 91.0529 43.9981 90.9884 43.8691 91.0529C43.6096 91.1819 43.3831 90.9884 43.1236 91.0529C42.9616 91.0859 42.7996 90.9554 42.6376 90.9554C42.5086 90.9224 42.3466 90.9884 42.1846 90.9554C41.8276 90.8579 41.5036 90.7304 41.1151 90.7604C40.7266 90.7904 40.3351 90.5984 39.9151 90.5009L38.1976 90.1109C37.9726 90.0464 37.7776 89.9489 37.5496 89.8199C37.4851 89.8529 37.3876 89.9174 37.2586 89.9174C36.7081 89.8199 36.1561 89.7884 35.6386 89.5934C35.1856 89.4314 34.7641 89.2034 34.2781 89.2694C34.1491 89.3024 34.0531 89.2364 33.9211 89.2364C33.8236 89.1074 33.7261 88.8464 33.6301 88.8464C32.9821 88.8794 32.5951 88.3274 32.0401 88.1654C31.7491 88.0679 31.5211 87.7454 31.2301 87.6464C30.5176 87.3554 29.9341 86.7389 29.1241 86.6414C28.8646 86.6084 28.6051 86.4794 28.3141 86.3819C28.4116 86.5109 28.4761 86.6069 28.5736 86.7059L28.5091 86.7704L25.8841 85.2479C25.7551 85.2149 25.6591 85.0859 25.5601 85.0229L24.6901 84.4379C24.5926 84.3734 24.3946 84.2759 24.3946 84.3089C24.1996 84.5339 24.0091 84.3419 23.8786 84.2759C23.0041 83.6609 21.9961 83.2709 21.1531 82.5899C20.7961 82.2989 20.3791 82.1039 20.1181 81.7469C19.6651 81.1964 19.1131 80.8064 18.4981 80.4824C18.0121 80.2229 17.5531 79.9319 17.1031 79.6394C16.8781 79.4774 16.6501 79.2824 16.6501 78.9269C16.6501 78.7019 16.5556 78.4739 16.2646 78.6029C16.1356 78.4079 16.0021 78.1829 15.8401 78.1169C15.4501 77.9549 15.1921 77.6639 14.8996 77.4044C14.6071 77.1449 14.3806 76.7894 14.0251 76.6589C13.3771 76.3994 12.9901 75.8489 12.6001 75.3944C11.6926 74.3249 10.8826 73.1594 10.0396 72.0239C9.97513 71.9264 9.84913 71.8619 9.75163 71.7644L9.71563 71.7974L10.2016 72.7379C10.1686 72.7709 10.1071 72.8024 10.0756 72.8354L9.46063 72.1544C9.42763 72.1874 9.39313 72.2189 9.36013 72.2189L11.6971 75.9134L12.2446 76.7879C12.2116 76.8209 12.1801 76.8524 12.1156 76.8854C11.9396 76.8479 11.7734 76.7736 11.6281 76.6674C11.4828 76.5611 11.3617 76.4253 11.2726 76.2689C10.9816 75.7499 10.6576 75.4259 10.0081 75.4889C9.94363 75.2639 9.87913 75.0029 9.84613 74.7764C9.71713 74.7764 9.62113 74.7764 9.39313 74.7434L10.6576 76.7834L10.3336 76.5884C10.9186 77.2034 11.3386 77.9834 12.0841 78.3704C12.2461 79.1159 13.0891 79.4729 13.2841 80.1704L12.8341 80.0729L11.9881 79.0679C12.0526 79.2929 12.1501 79.4879 12.2791 79.6529C12.6691 80.1389 13.0291 80.6249 13.4821 81.0479C13.6441 81.2099 13.8676 81.2729 13.8676 81.5669C13.9321 81.5024 14.0026 81.4694 14.1301 81.4049L14.0011 81.6959C14.1301 81.6959 14.2261 81.7289 14.3251 81.7289C14.3896 81.9239 14.2891 82.2149 14.6791 82.1489C14.7121 82.1489 14.7466 82.1819 14.7796 82.2134C14.9416 82.6334 15.1996 82.6334 15.5536 82.4729C15.6181 82.4399 15.7786 82.4729 15.8131 82.5374C15.9751 82.8944 16.2031 82.9274 16.4941 82.6664C16.4941 82.8284 16.5271 82.9904 16.5271 83.1194H16.6561C16.6561 83.0549 16.6231 82.9574 16.6231 82.7954L16.9471 83.0549C17.2711 83.5079 17.5666 83.9294 18.0196 84.2849L19.7671 85.8404C20.9011 86.7809 22.1671 87.5579 23.4301 88.2704L28.0621 90.9284C29.9746 91.9334 32.0161 92.6144 34.1221 93.1004L36.4231 93.6194L38.4631 94.2674L41.6071 94.8824L42.3196 94.9799V95.0444C42.6106 95.0444 42.9676 94.9154 43.0321 95.0114C43.1941 95.2709 43.3231 95.1404 43.5181 95.1089C43.7431 95.0444 44.0041 95.0444 44.2636 95.0444C45.1711 95.0774 46.0456 95.2694 46.9531 95.2064C47.1481 95.2064 47.4391 95.0444 47.6011 95.3684C47.6656 95.3354 47.6986 95.3039 47.7631 95.2709C47.8921 95.2379 48.0541 95.2379 48.1831 95.2064V95.2709C48.1186 95.3039 48.0541 95.3039 47.9236 95.3354C48.0856 95.3684 48.1831 95.3999 48.2806 95.4329C48.2161 95.4974 48.1831 95.4974 48.1186 95.5304C48.0541 95.5634 47.9566 95.5949 47.8276 95.6924C48.9946 95.9174 50.0956 95.9519 51.0676 95.6924V95.4974H51.1966C51.1966 95.5619 51.2296 95.6264 51.2611 95.6924C52.7521 95.8214 54.2101 95.6279 55.6036 95.1419C55.7326 95.3039 55.8286 95.5319 56.0236 95.2064C56.0881 95.1089 56.2486 95.0774 56.3806 95.0444C56.6716 94.9799 57.0286 94.8494 57.2881 94.9469C57.5791 95.0444 57.6781 94.7849 57.9031 94.7849C58.2728 94.7861 58.6419 94.7534 59.0056 94.6874C59.2006 94.6544 59.3956 94.5584 59.6206 94.4924C59.6206 94.4594 59.6206 94.4279 59.5876 94.3949L58.9066 94.3304L60.0091 93.8114C60.0091 93.8444 60.0421 93.8444 60.0421 93.8759C59.9446 93.9089 59.8801 94.0379 59.7511 94.0379H60.2041C60.1066 94.0379 59.9791 94.3289 59.8141 94.5239L63.0871 93.7139V93.6494C62.9581 93.6824 62.8621 93.6824 62.7631 93.7139C62.7301 93.0329 63.4756 93.2609 63.7351 92.8709L62.7631 93.1304V93.0659L66.1006 91.6079C66.1006 91.6409 66.1336 91.6409 66.1336 91.6724C65.9386 91.8014 65.7436 91.8974 65.4526 92.0624C65.6476 92.0954 65.7766 92.0954 65.8726 92.1269C65.8726 92.2244 65.8726 92.2889 65.8396 92.3219C66.3901 92.2889 66.2596 91.8029 66.4246 91.5119C66.5221 91.5449 66.6496 91.6094 66.7486 91.5764C67.0396 91.5119 67.2991 91.4144 67.5916 91.3169L68.5636 90.9929C69.0826 90.7679 69.5686 90.4739 70.0861 90.2129C70.1836 90.1799 70.3456 90.2129 70.4761 90.2129C70.5736 90.2129 70.6381 90.1484 70.7011 90.0839C70.8301 89.9864 70.9606 89.7929 71.0581 89.8244C71.5111 89.8889 71.8381 89.7269 71.9656 89.3054C71.9986 89.3054 71.9986 89.2724 72.0301 89.2724C72.0616 89.2724 72.0631 89.2724 72.0631 89.2394C72.1921 89.5304 72.4531 89.5634 72.8731 89.2724C72.6136 89.2724 72.3541 89.2394 72.1276 89.2079L72.0946 89.2409C72.2236 89.1119 72.3856 89.0159 72.5146 88.9169L74.6206 87.7499C74.6536 87.7169 74.7181 87.7499 74.7826 87.7499C74.8801 87.7499 75.0076 87.7499 75.0736 87.7169C75.4936 87.5219 75.8836 87.2969 76.2736 87.0689C76.1761 87.0359 76.2736 87.0044 75.9496 86.9714V86.9069C76.2736 86.8424 76.3696 86.8094 76.5646 86.7449L76.5001 86.7239C77.3431 85.8809 78.4126 85.2659 79.2226 84.5519C79.3846 84.5849 79.4476 84.6164 79.5466 84.6164C79.5796 84.5189 79.5796 84.4214 79.5796 84.3569C79.7086 84.1949 79.8391 83.9999 79.9996 83.8709L82.1386 81.9914L84.8281 79.0739L87.0331 76.2539L89.5291 71.9759L91.2001 68.8649C91.2646 68.7674 91.3951 68.6399 91.4911 68.6399L94.0861 68.3804C94.2811 68.3474 94.5061 68.2184 94.7011 68.1209C94.6036 67.9589 94.5391 67.7639 94.4416 67.6019C94.3126 67.4069 94.1176 67.2449 93.9886 67.0514C93.8596 66.8894 93.7636 66.6944 93.6646 66.5009L93.3736 66.0479L92.8231 64.9454C92.7901 64.8479 92.7256 64.6859 92.7586 64.5884C93.3436 63.3239 93.5686 61.9634 94.1191 60.6989C94.6696 59.4029 94.8316 57.9434 95.0911 56.5499L95.6101 52.5629L95.8696 49.7759C96.0646 48.2849 95.9986 46.8914 95.9671 45.4979L95.8051 41.7704L95.5801 37.9784L94.7371 32.8259C94.4461 31.4309 93.9571 30.1034 93.4726 28.7759L91.4626 24.1259C90.1981 21.7259 88.5451 19.5884 87.0226 17.3519C86.0176 15.9269 84.7216 14.7569 83.7496 13.3019C83.1991 12.4589 82.3891 11.7464 81.5776 11.0969C80.2816 10.0619 78.9196 9.11986 77.5576 8.21236L74.3821 6.20236C73.5076 5.71636 72.5821 5.32786 71.6596 4.90636C70.6246 4.42036 69.6196 3.83686 68.4496 3.61036C68.1586 3.54586 67.8991 3.44836 67.6066 3.35086L65.4016 2.57086L61.9966 1.50136C60.8641 1.22986 59.6971 1.03486 58.5301 0.869862C57.2341 0.674862 55.9051 0.610362 54.6091 0.479862L52.1131 0.254862L48.3856 0.158862L46.9906 0.0838623L46.9921 0.0928623ZM49.2931 3.86236L50.4931 4.02436L52.0486 4.12186L55.5481 4.44586L58.4971 4.93186C60.6361 5.28886 62.7421 5.87236 64.7851 6.55186C65.9851 6.94186 67.1506 7.45936 68.3176 7.94686C70.9426 9.01636 73.4386 10.3124 75.9016 11.6744C76.6816 12.0944 77.1316 12.7769 77.7016 13.3919L80.1976 16.0499L82.9501 19.3199L85.4131 22.2374C85.6726 22.5284 85.8661 22.8854 86.0941 23.2094L87.6496 25.5644C87.9736 26.1794 88.1686 26.8934 88.3951 27.5744L89.3671 30.5564L89.9521 32.8574C90.0811 33.3764 90.0496 33.9269 90.2116 34.4474C90.4066 35.1284 90.2116 35.8724 90.4066 36.5534C90.4396 36.6179 90.4711 36.7154 90.5041 36.7784C90.6331 36.9074 90.7291 37.0379 90.5371 37.2314C90.5041 37.2644 90.5041 37.3934 90.5371 37.4909C90.6016 37.4264 90.6346 37.3619 90.6991 37.2659C90.6991 37.3304 90.7321 37.3634 90.7321 37.3949C90.7321 37.5239 90.6991 37.6544 90.7321 37.7849C90.7321 37.8494 90.7966 37.9469 90.8296 38.0099C90.8941 37.9454 90.9586 37.9124 91.0891 37.8149C91.3801 38.9174 91.4131 40.0199 91.4131 41.1524C91.4131 42.2219 91.6081 43.2914 91.1536 44.3279C91.2511 43.9709 91.0246 43.6469 91.1206 43.3229C91.0876 43.3229 90.8956 43.1279 90.8611 43.0979C90.8281 43.1954 90.8611 43.2929 90.7966 43.4219C90.7636 43.3244 90.5371 43.3574 90.5371 43.2599C90.5041 43.7129 90.7321 44.1674 90.6991 44.6204C90.7966 44.5559 91.1851 44.5229 91.2841 44.4254C91.3171 44.4584 91.3816 44.4899 91.4131 44.4899C90.7651 44.9759 90.9271 45.4619 91.2181 46.0124C91.2826 46.1414 91.4776 46.4024 91.2826 46.6604C91.2181 46.7249 91.3156 46.9199 91.3471 47.0804H91.4446V47.1449L91.1536 47.2424C91.0891 47.1449 90.7006 46.9514 90.7006 46.7894V48.4499C91.0246 48.5474 91.0246 49.0004 91.1536 49.2299C91.2181 49.1324 91.2511 49.0679 91.2826 48.9704L91.3156 49.0034C91.2826 49.1984 91.2511 49.3934 91.1866 49.5884L91.0246 50.4314C91.0246 50.4644 91.0891 50.5289 91.0891 50.5604C90.7321 51.3704 90.9271 52.2779 90.7981 53.1209C90.7006 53.7359 90.7981 54.3854 90.7336 55.0334C90.6691 55.5839 90.5386 56.1674 90.4096 56.7194C90.3766 56.8169 90.3121 56.8484 90.1501 56.9144C90.2146 56.5244 90.1831 56.2664 90.1171 55.9094C90.0841 55.9094 89.6641 55.6844 89.6311 55.6844C89.6311 56.1374 89.8906 56.7539 89.9881 57.2744C89.8906 57.2414 89.5021 57.0149 89.4691 57.0149C89.4046 57.4049 89.4046 57.9224 89.3716 58.3439C89.3386 58.6679 89.0476 58.9589 89.0146 59.3159C89.0146 59.5109 89.2396 59.6399 89.2096 59.9639H89.4691C89.4691 59.3159 89.7601 58.7339 89.7601 58.0514H89.8576C89.8906 58.1159 89.9866 58.1804 89.9551 58.2134C89.8906 58.5704 89.7601 58.9589 89.7931 59.3159C89.7931 59.5109 89.9551 59.7059 89.8906 59.9309C89.8261 60.1259 89.7931 60.3209 89.7616 60.6119C89.7286 60.4499 89.6971 60.3869 89.6971 60.2879C89.6641 60.2879 89.3731 60.2549 89.3401 60.2549C89.3071 60.4499 89.5651 60.6449 89.5351 60.8054C89.5021 60.8384 89.4706 60.8384 89.4061 60.8699L88.3366 59.3144L85.8091 55.5869C85.5841 55.2629 85.3891 54.9389 85.2241 54.6149C84.2191 52.8974 83.1181 51.2444 81.8866 49.6559C80.9461 48.4559 80.2006 47.1599 79.3261 45.8969L76.8961 42.3314C76.6051 41.9414 76.2481 41.5859 75.9886 41.1644L73.5586 37.1444L71.3236 33.9044L70.5436 32.7704C70.5106 32.7059 70.4791 32.6414 70.4791 32.5454L70.3171 30.4394L70.3816 28.4624V27.8774C70.3816 27.7154 70.4146 27.5864 70.4146 27.4244C70.4476 27.3914 70.4791 27.3269 70.5121 27.2954C69.5716 27.2954 68.5996 27.2624 67.6621 27.2954C67.0471 27.3284 66.7216 27.0704 66.3001 26.6144C65.0701 25.2299 64.1611 23.6444 63.0901 22.1519L60.0106 17.9369L57.4831 14.5664L54.6631 10.6769L51.0751 5.99986L49.2931 3.86086V3.86236ZM46.2001 5.55736C46.2976 5.55736 46.3951 5.60536 46.4596 5.71036L50.9971 11.4794L53.2021 14.5904L55.6981 18.2204L59.3281 23.6654L62.0176 27.6104H60.3646L55.7626 27.5129L49.5076 27.9989C46.8826 28.2239 44.2246 28.2584 41.5996 28.2584C40.6591 28.2584 39.7201 28.3874 38.7796 28.4534L35.4091 28.6154L31.4551 28.7444H29.1211L32.2651 24.4439L33.1726 23.1479C33.2701 23.0189 33.3976 22.9529 33.5626 22.8239L33.5296 22.7594C33.6586 22.5974 33.7891 22.4684 33.8536 22.3394C34.0156 22.0799 34.1131 21.7889 34.2436 21.4964C34.2766 21.4319 34.3726 21.3674 34.3726 21.3674C34.8256 21.5924 34.8256 21.1079 34.9876 20.9474L35.8306 19.9424C36.0256 19.6829 36.2206 19.4564 36.3811 19.1624C36.4141 19.0649 36.3166 18.9029 36.2836 18.7724H36.1861C36.2836 18.7079 36.3811 18.6104 36.4771 18.5474C36.5101 18.5474 36.5101 18.5474 36.5416 18.5144L37.1266 17.6714C37.5166 17.1524 37.9366 16.6364 38.3911 16.1804L38.1961 16.6334C38.2291 16.6334 38.2291 16.6664 38.2606 16.6664L39.4606 15.1439C39.4276 15.1109 39.3961 15.0794 39.3631 15.0794L38.9101 15.5654C38.8771 15.5324 38.8456 15.5009 38.8126 15.5009L39.7846 14.1719C39.8491 14.2694 39.9136 14.3969 40.0441 14.6579L40.4011 13.8779C40.3036 13.9754 40.1761 14.0729 40.0771 14.1689L39.9796 14.0714L40.5646 13.1969L42.4126 10.5389C42.6376 10.2149 42.9316 9.95386 43.1251 9.63136C43.7401 8.40136 44.7151 7.42636 45.4591 6.29386C45.6211 6.06886 45.8491 5.87386 46.0441 5.67886C46.1086 5.60386 46.1731 5.56936 46.2061 5.55886L46.2001 5.55736ZM37.1251 18.1874L36.5746 18.5444C36.5416 18.5774 36.5101 18.5774 36.5416 18.5774C36.5746 18.7394 36.5746 18.8684 36.6061 19.0964L37.1911 18.2534L37.1251 18.1874ZM64.4791 31.5299C64.7701 31.5299 64.9321 31.6274 65.0941 31.8869L66.0016 33.3449C66.0346 33.4094 66.0991 33.5069 66.0991 33.6044L66.1321 35.7764L66.2611 37.9814L66.2281 40.2824L66.2926 43.6529V43.9439C66.2596 43.9439 66.2281 43.9769 66.1636 43.9769L65.7436 42.5819C65.4196 41.6414 65.0626 40.7024 64.4791 39.8594L62.5996 37.0724C62.4376 36.8474 62.2096 36.6524 62.0146 36.4574C61.3336 35.7119 60.6541 34.9349 59.7796 34.3829C58.4911 33.5765 57.1356 32.8824 55.7281 32.3084C55.3381 32.1464 54.9826 31.9514 54.5941 31.7234H55.3741L60.9166 31.6259L64.4821 31.5284L64.4791 31.5299ZM40.1401 32.3729L40.8526 32.4059C40.3336 32.6654 39.8176 32.9249 39.3616 33.2489C38.7766 33.6389 38.2276 34.1564 37.6441 34.5779C37.0606 34.9994 36.5416 35.5184 36.0541 36.0689C35.4391 36.8144 34.7581 37.4639 34.1101 38.1749L32.7496 39.7304C32.1991 40.4429 31.7146 41.2214 31.1941 42.0314L31.4191 32.7944L35.8921 32.5694L40.1371 32.3744L40.1401 32.3729ZM48.2746 34.0259L51.1921 34.1234C51.6121 34.1564 52.0021 34.2524 52.3921 34.3829C52.8916 34.5548 53.3788 34.7608 53.8501 34.9994C54.398 35.2923 54.9284 35.6168 55.4386 35.9714L58.1941 37.8194C59.1016 38.3699 59.8141 39.1154 60.3991 39.9584C61.1116 40.9634 61.9216 41.8709 62.2471 43.1024L62.7331 45.2414C62.8306 45.6314 63.0571 46.0214 62.9581 46.4714L62.5381 48.9344C62.4736 49.2584 62.4091 49.5824 62.4406 49.9064C62.5051 50.9114 62.1166 51.7859 61.7281 52.6934C61.5991 52.9844 61.4041 53.2784 61.2421 53.6009C61.3217 53.6566 61.4092 53.7 61.5016 53.7299L61.7926 53.1449C61.8256 53.1449 61.8256 53.1449 61.8571 53.1779L61.4041 54.5729L60.1396 57.5879C59.8801 58.1384 59.4271 58.5929 59.1046 59.1104L58.1971 60.4709C57.9061 60.8279 57.6121 61.1834 57.2251 61.4429L54.5026 63.2429C53.9176 63.5999 53.2381 63.7934 52.5901 63.9554L49.4146 64.6364C48.5071 64.7654 47.5666 64.7339 46.6276 64.7339C45.7947 64.7337 44.962 64.7012 44.1316 64.6364C43.1911 64.5389 42.2521 64.4414 41.3446 64.0214L38.9791 62.9519C38.1991 62.5619 37.4236 62.1089 36.8401 61.3964C36.4201 60.8774 35.8351 60.4559 35.3176 60.0014C35.4122 60.3922 35.6569 60.73 35.9986 60.9419C35.8366 61.1369 35.6086 61.0394 35.2861 60.5219C35.1886 60.5864 35.0911 60.6194 35.0266 60.6509L35.3176 60.0029L34.8976 59.1929L34.1521 57.8969C34.0876 57.7994 34.0876 57.7019 34.0231 57.6059L33.5701 57.0209C33.3106 56.6309 33.0841 56.2109 32.7601 55.8209C32.7601 55.9184 32.7931 56.0159 32.7931 56.1449C32.7601 56.1449 32.7286 56.1779 32.7286 56.1779L32.0476 54.5249C32.0146 54.5249 32.0146 54.5249 31.9831 54.5579L32.5681 56.6969C32.5351 56.6969 32.5036 56.7299 32.4706 56.7299C32.3731 56.6009 32.2756 56.4704 32.2111 56.3099C32.1466 56.0504 31.9516 56.0504 31.7911 56.1479C31.6936 56.2124 31.6291 56.4389 31.6621 56.5379L32.4076 58.1909C32.4721 58.3859 32.5366 58.5479 32.6326 58.7414C32.6656 58.8059 32.7616 58.8704 32.7616 58.9664C32.8906 59.2259 32.9866 59.4854 33.1516 59.7119L34.0591 60.8789L34.8691 62.0789C34.9021 62.1434 34.9981 62.1434 35.0311 62.1764C35.1931 62.6624 35.7436 63.0194 36.1336 62.8244C36.2311 63.5699 37.0411 63.8294 37.3636 64.5419L36.4231 64.1219C36.3901 64.1549 36.3901 64.1864 36.3586 64.2509L37.4926 64.8659L38.4331 65.4809C38.8231 65.8379 39.2761 66.0314 39.8281 66.1619C39.7951 66.0644 39.7636 66.0329 39.7636 66.0329L42.3241 67.2629L31.6291 67.4579L31.5961 65.6579C31.5961 65.3984 31.6606 65.1719 31.6291 64.9124L31.3381 60.4724C31.1431 58.9169 31.1431 57.3929 31.1761 55.8224C31.2091 54.9794 31.1431 54.1049 31.1116 53.2619L31.1446 49.8914C31.1446 49.7294 31.2091 49.6004 31.2736 49.4384H31.3711C31.4041 49.5029 31.3711 49.6004 31.4356 49.6334C31.5331 49.7309 31.6951 49.8929 31.7596 49.8584C31.9546 49.7294 32.2456 49.5989 32.3101 49.4054C32.4721 49.0154 32.5351 48.5954 32.5351 48.2054C32.5351 47.9144 32.6641 47.7194 32.7946 47.5244C32.8591 47.4269 32.8921 47.3294 32.9566 47.2004L32.5366 46.9094C32.6656 46.5524 32.6341 46.1294 33.1216 45.9374C33.1861 45.9044 33.1861 45.7424 33.2191 45.6464L33.3166 44.8364C33.3811 44.9339 33.4141 44.9654 33.4786 45.0314C33.5116 44.9669 33.5431 44.9339 33.5431 44.9339C33.5431 44.8049 33.5101 44.5439 33.5431 44.5439C33.9331 44.4794 33.7681 44.0579 33.9631 43.8629C33.9961 43.8299 33.9301 43.7339 33.9301 43.6679C33.9301 43.6019 33.9301 43.5059 33.9631 43.5059C34.4161 43.4084 34.3531 42.9209 34.6441 42.6959C34.7416 42.6314 34.7731 42.5339 34.9036 42.3719C35.1631 42.8249 34.7086 43.0529 34.6786 43.3769C35.2291 43.0529 35.3911 42.2744 35.0686 42.0479C35.2033 41.9456 35.3234 41.8255 35.4256 41.6909L36.4951 40.5569C36.7201 40.2659 36.8521 39.9089 37.0801 39.6164C37.2091 39.4544 37.4701 39.3254 37.6651 39.2264C38.2501 38.9024 38.7991 38.5454 39.1561 37.9964C39.2206 37.9319 39.3181 37.8674 39.4156 37.8014C39.5131 37.7354 39.7066 37.7369 39.7396 37.6394C39.7726 37.5749 39.6751 37.4144 39.6106 37.3154C39.7396 37.2509 39.8701 37.1204 40.1296 36.9914C40.0321 37.1864 40.0006 37.3154 39.9346 37.4444L40.0966 37.6064C40.3876 37.3814 40.8421 37.1204 41.1316 36.9254C41.1316 36.8924 40.9696 36.7634 40.9696 36.7634L40.1896 37.1534C40.2541 37.0559 40.2541 36.9914 40.2871 36.9584L41.6821 36.1484L45.0871 34.6259C45.2821 34.5284 45.5401 34.5929 45.7681 34.5929C45.8656 34.5929 45.9301 34.5929 46.0276 34.5599L47.5831 34.1069C47.8152 34.0427 48.0548 34.0099 48.2956 34.0094L48.2746 34.0259ZM47.0101 34.5119L46.0696 34.9319C46.0696 34.9649 45.9076 35.2229 45.9406 35.2229C46.1026 35.1899 46.4596 34.9319 46.6531 34.8989C46.7506 34.8989 46.8781 34.9319 46.9771 34.9634C46.9771 34.8344 46.9771 34.7039 47.0101 34.5104V34.5119ZM70.4401 40.0214C70.7641 40.4414 71.1211 40.8314 71.3476 41.2514C72.0931 42.6119 73.0651 43.7789 73.9726 45.0104L76.1776 48.3479L78.7726 52.3349L80.7826 55.3169L82.6951 57.8774L84.3811 60.1124L86.3251 62.8019L87.3601 64.1624C87.5551 64.4219 87.8461 64.6154 88.0411 64.7774C88.0081 64.7774 87.9766 64.7774 87.9121 64.7444L88.1371 65.0354C88.4941 65.2304 88.5271 65.4254 88.3321 65.7164C88.2991 65.7809 88.2346 65.8454 88.2031 65.9114C88.1701 65.8469 88.1701 65.7494 88.1386 65.6204C87.9436 66.1394 87.5236 65.8799 87.2311 65.8799L76.8601 65.9444C76.3096 65.9444 75.7261 66.0734 75.1741 66.1064L71.1871 66.2354C71.0896 66.2354 70.9921 66.0734 70.8301 65.9444C70.7971 66.0089 70.7326 66.1064 70.6351 66.2354C70.6021 66.1709 70.5376 66.1064 70.4731 66.0104L70.3756 66.2699H70.2781C70.2136 65.8169 70.0831 65.3954 70.0831 64.9409L70.2121 62.0234C70.2451 61.5704 70.2121 61.1489 70.2121 60.7274L70.5691 60.9869C70.6269 60.8747 70.692 60.7664 70.7641 60.6629C70.7641 60.6629 70.6996 60.6299 70.6351 60.5654C70.6996 60.5324 70.7641 60.4679 70.7641 60.4364C70.7971 60.3389 70.8616 60.2414 70.8616 60.1769C70.8616 59.9519 70.7971 59.7569 70.7641 59.5619C70.7971 59.5619 70.8286 59.5619 70.8616 59.5289L71.0566 60.5009H71.1541C71.0251 60.2759 71.4451 60.0809 71.0896 59.8199C71.0566 59.7869 71.1226 59.5949 71.1226 59.4959C71.0251 59.3009 70.9606 59.1059 70.8631 58.8479C70.8961 58.8149 70.9921 58.7834 71.0881 58.7504C70.9591 58.6859 70.8631 58.6214 70.7641 58.5884C71.0881 58.2974 71.0881 58.1354 70.7971 57.8084C70.8616 57.7754 70.9261 57.7754 70.9261 57.7439C70.9261 57.4529 70.9261 57.1589 70.8616 56.8694C70.7971 56.5454 70.9591 56.1569 70.4716 55.9619C70.5046 56.0594 70.5361 56.1239 70.6006 56.2214C70.6006 56.2214 70.5031 56.2544 70.4056 56.3189C69.9856 55.9289 70.2436 55.4114 70.1461 54.8279C70.3331 54.8826 70.5169 54.9477 70.6966 55.0229C70.6321 54.7979 70.4716 54.5369 70.3726 54.2429H70.2436V52.1099C70.2436 52.1429 70.4686 52.1429 70.6006 52.1744C70.6006 52.1414 70.6336 52.1099 70.6336 52.0769C70.5361 51.9479 70.4086 51.8174 70.2766 51.6569L70.3411 51.5924C70.0816 51.2684 70.2121 50.8124 70.2121 50.7179V48.4499C70.5361 48.7739 70.0501 49.1954 70.5361 49.3904C70.5691 49.4234 70.5691 49.4234 70.6006 49.3904C70.5676 49.3904 70.5676 49.3904 70.5361 49.3574V49.0664H70.5031L70.4386 47.6084H70.3741C70.3411 47.6729 70.3411 47.7059 70.3096 47.7704H70.2451L70.4401 40.0244V40.0214ZM70.2301 49.4999C70.3921 49.5644 70.5541 49.5974 70.5541 49.6619V49.4369C70.4566 49.4699 70.3591 49.4699 70.2301 49.5014V49.4999ZM15.8506 42.6944L14.7526 44.0549C14.8171 44.0879 14.9116 44.3144 14.9776 44.3789L16.1776 42.8234C16.1446 42.7904 15.8866 42.7259 15.8536 42.6944H15.8506ZM13.6786 44.2844C13.4836 44.5754 13.0006 45.0944 12.8086 45.3869C12.8416 45.4199 13.1941 45.2579 13.2286 45.2894L13.8136 44.3819C13.7491 44.3489 13.7131 44.3174 13.6786 44.2844ZM14.3596 44.7704L13.7791 45.1904C13.8436 45.2549 13.8391 45.2879 13.8391 45.3524C13.5796 45.3194 13.4821 45.4499 13.3531 45.8054C13.3201 45.9029 13.1626 45.9344 12.9991 46.0649C12.9661 46.1294 12.9316 46.2899 12.8641 46.4549L12.8971 46.4879C12.8326 46.5524 12.7351 46.5854 12.7351 46.5854C12.5401 46.7804 12.3151 46.9424 12.1201 47.1359C12.0871 47.2334 12.0556 47.3309 12.0556 47.4269L12.9661 46.5194L12.9991 46.5524L13.3531 45.9674C13.3861 46.0004 13.3861 46.0319 13.4176 46.0649L13.1296 46.8749C13.0651 46.9079 12.9676 46.9724 12.9676 46.9394C12.8386 47.0369 12.7381 47.1644 12.6076 47.2634L12.0271 47.6534L11.0221 48.4964L10.3066 49.5989C10.6966 49.5014 10.7926 49.6634 10.7596 49.9889C11.2126 50.0534 11.2486 49.6979 11.3791 49.4384C11.4121 49.3739 11.4436 49.2434 11.5081 49.2134C11.7991 48.9539 12.1201 48.7274 12.4441 48.4679C12.5086 48.4034 12.5116 48.2729 12.5116 48.1769C12.5116 48.1439 12.3616 48.1439 12.2491 48.1124L13.2541 46.8824C13.4161 46.7849 13.5781 46.6574 13.5781 46.5584C13.5451 46.2674 13.7131 46.1384 13.9156 46.0394C13.7656 46.7519 13.3306 47.3354 12.8986 47.4644C13.0276 47.5289 13.1581 47.5934 13.2556 47.5619C13.3531 47.5304 13.4056 47.3669 13.4851 47.2709L14.3551 46.0064L14.6461 45.5204L14.5171 45.3914L14.1316 46.0394L14.0176 46.0064V45.9734C13.8886 45.8759 13.8556 45.7784 13.8556 45.7484C13.8886 45.6509 13.9531 45.5534 14.0176 45.4574C14.0821 45.4574 14.1796 45.4244 14.1796 45.4244C14.3086 45.1994 14.3146 45.0344 14.4421 44.8394C14.4091 44.8064 14.3746 44.8064 14.3416 44.7749L14.3596 44.7704ZM65.7901 55.3199C65.7256 59.0144 66.1471 62.6444 66.6331 66.3074L55.4836 66.6974C56.9416 66.0824 58.1416 65.2064 59.2426 64.2014C59.4046 64.0394 59.5666 63.8774 59.7616 63.7484C61.1221 62.9054 62.1271 61.7384 63.0346 60.4424C64.0696 58.9514 64.7521 57.2669 65.5951 55.6784L65.7901 55.3214V55.3199ZM70.3276 55.6109C70.379 55.7153 70.4221 55.8237 70.4566 55.9349C70.6186 55.9019 70.6816 55.9019 70.7476 55.8704C70.7476 55.8374 70.7476 55.8059 70.7806 55.7729C70.6831 55.7399 70.5556 55.6754 70.3276 55.6109ZM70.4251 55.9349H70.3921C70.4251 55.9349 70.4566 55.9679 70.4566 55.9679L70.4251 55.9349ZM4.28113 56.0324C4.21663 56.0324 4.02163 56.1299 3.99013 56.1614L4.41463 57.1664C4.44763 57.1334 4.63963 57.0374 4.66963 57.0374L4.27963 56.0324H4.28113ZM3.37363 57.3614C3.27613 57.5234 3.17863 57.6854 3.21163 57.8144C3.21163 57.9119 3.37363 58.0094 3.47113 58.1054C3.47113 58.0724 3.50413 58.0409 3.53563 58.0079L3.37363 57.3599V57.3614ZM89.9986 57.3944C89.9986 57.4589 90.0316 57.5564 89.9986 57.6194V57.3944ZM5.05963 58.1069C4.95565 58.136 4.8562 58.1794 4.76413 58.2359L5.54413 59.9219C5.57713 59.9219 5.83513 59.7929 5.83513 59.7929C5.57563 59.2424 5.41513 58.6259 5.05513 58.1069H5.05963ZM4.41163 59.4029C4.41163 59.5319 4.24963 59.5004 4.24963 59.6279C4.05463 59.6279 3.89263 59.5949 3.73063 59.5949C3.69763 59.6279 3.82513 59.8199 3.85663 59.8544H4.54063C4.54063 59.6924 4.50463 59.5634 4.50463 59.4014L4.41163 59.4029ZM34.2211 60.6674L35.3236 62.2574L35.2906 62.2904C35.2261 62.2574 35.1286 62.2259 35.0656 62.1614L34.2856 60.9944C34.2211 60.8969 34.1881 60.7994 34.2211 60.6704V60.6674ZM70.3906 62.4179L70.3261 63.3899C70.3261 63.4544 70.3906 63.5849 70.4236 63.5849C70.4881 63.6179 70.6186 63.5519 70.6831 63.5204C70.7161 63.4874 70.7476 63.4229 70.7476 63.3914C70.6501 63.3269 70.5526 63.2939 70.4566 63.2294C71.0716 62.9054 70.4566 62.7434 70.3921 62.4194L70.3906 62.4179ZM13.9411 80.7599L15.0061 81.9599C15.1036 81.9269 15.2011 81.9269 15.2971 81.8954C15.3946 82.0574 15.4471 82.2524 15.5596 82.4459C15.1066 82.4129 14.8756 82.2209 15.0046 81.9599C14.8096 81.8624 14.5846 81.7979 14.4856 81.6689L13.8376 80.8589L13.9411 80.7599ZM77.0356 86.8529L76.4206 87.0149L76.2256 87.3719C76.2586 87.3719 76.2901 87.4049 76.3231 87.4364C76.5181 87.2414 76.7431 87.0794 77.0356 86.8514V86.8529ZM75.3826 87.7604L74.2801 88.4414C74.3131 88.4744 74.3131 88.5059 74.3446 88.5389C74.7976 88.4414 75.1546 88.2149 75.5116 87.9539C75.4786 87.8894 75.4141 87.8249 75.3826 87.7589V87.7604ZM59.5021 93.9179C58.0111 94.3379 57.5251 94.4039 57.3631 94.1774L59.5021 93.9179ZM57.2971 94.2089C57.3301 94.2734 57.3301 94.3379 57.3616 94.4039C57.1666 94.4039 57.0376 94.4684 56.8756 94.5014L55.4806 94.7264C55.3186 94.7594 55.1236 94.9214 55.0606 94.6289C54.9961 94.6619 54.9316 94.6619 54.8656 94.6934C55.0276 95.1794 55.4161 94.7909 55.7401 94.9844L53.6656 95.2439V95.1794L54.2806 95.0819V94.9844L53.3086 94.9199C53.2111 94.9199 53.0836 95.0489 52.9846 95.0819C52.8556 95.1149 52.7251 95.1464 52.5646 95.1464L50.9446 95.2109C50.9116 95.2109 50.8471 95.1779 50.8156 95.1779V95.0999L57.2956 94.2254L57.2971 94.2089ZM50.5231 95.0519V95.1494C49.9081 95.2469 49.3231 95.3114 48.7231 95.3444V95.2469L50.5231 95.0519Z" fill="black"/>
</g>
<defs>
<clipPath id="clip0_5_1029">
<rect width="96" height="96" fill="white"/>
</clipPath>
</defs>
</svg>
