<svg width="104" height="104" viewBox="0 0 104 104" fill="none" xmlns="http://www.w3.org/2000/svg">
<g clip-path="url(#clip0_5_111)">
<path d="M85.509 35.6782C84.4301 35.3069 83.3122 34.9555 82.1611 34.6232C82.3503 33.8511 82.524 33.089 82.6783 32.3398C85.2126 20.0381 83.5556 10.1278 77.8975 6.86489C72.472 3.7362 63.5991 6.99836 54.6379 14.797C53.7761 15.547 52.912 16.3409 52.0483 17.173C51.4727 16.6225 50.8981 16.0905 50.325 15.5816C40.9334 7.24272 31.5197 3.72861 25.8671 7.00095C20.4468 10.1387 18.8417 19.4554 21.1229 31.1138C21.3432 32.2398 21.6007 33.3898 21.8919 34.559C20.5596 34.9372 19.2734 35.3404 18.0427 35.7693C7.03204 39.6081 0.00012207 45.6245 0.00012207 51.865C0.00012207 58.3103 7.54889 64.775 19.0174 68.6949C19.9224 69.0042 20.8615 69.2967 21.8293 69.5744C21.5152 70.8389 21.2419 72.0781 21.0126 73.2867C18.8374 84.7428 20.5361 93.8393 25.9419 96.9573C31.5256 100.177 40.8967 96.8675 50.0218 88.8911C50.743 88.2606 51.4668 87.592 52.1919 86.8911C53.1318 87.7962 54.0701 88.6527 55.0035 89.4561C63.8422 97.0621 72.5718 100.133 77.9726 97.0067C83.5508 93.7775 85.3637 84.0057 83.0101 72.1166C82.8303 71.2086 82.6211 70.281 82.3862 69.3369C83.0443 69.1423 83.6904 68.9415 84.3204 68.7326C96.2429 64.7824 104 58.3964 104 51.865C104 45.6019 96.7414 39.545 85.509 35.6782ZM82.9231 64.5155C82.3544 64.7037 81.7709 64.8857 81.1763 65.0621C79.8601 60.8953 78.0837 56.4645 75.9099 51.8867C77.9843 47.4179 79.692 43.0437 80.9714 38.9039C82.0352 39.2118 83.0678 39.5365 84.0628 39.8791C93.6868 43.1922 99.5573 48.0906 99.5573 51.865C99.5573 55.8854 93.2173 61.1045 82.9231 64.5155ZM78.6516 72.9794C79.6924 78.2366 79.841 82.9897 79.1516 86.7054C78.5322 90.0442 77.2866 92.2703 75.7464 93.1618C72.4689 95.0589 65.4599 92.5929 57.901 86.0882C57.0344 85.3426 56.1616 84.5464 55.286 83.7037C58.2164 80.4988 61.1452 76.7729 64.0036 72.6349C69.0312 72.1888 73.7812 71.4594 78.0887 70.4637C78.3008 71.3195 78.4893 72.1588 78.6516 72.9794ZM35.4561 92.834C32.2539 93.9649 29.7035 93.9973 28.1618 93.1083C24.8814 91.2162 23.5176 83.9125 25.3778 74.1153C25.5909 72.9933 25.8445 71.8408 26.1368 70.6627C30.3972 71.6048 35.1123 72.2827 40.152 72.6912C43.0296 76.7403 46.043 80.4621 49.0797 83.7209C48.4162 84.3615 47.7554 84.9712 47.0982 85.5458C43.0632 89.0729 39.0196 91.5753 35.4561 92.834ZM20.4542 64.4908C15.3831 62.7576 11.1952 60.5049 8.32454 58.0467C5.74509 55.8376 4.44278 53.6445 4.44278 51.865C4.44278 48.078 10.0887 43.2477 19.5051 39.9646C20.6477 39.5663 21.8437 39.1909 23.085 38.8382C24.3864 43.0715 26.0935 47.4975 28.1537 51.9731C26.0669 56.5152 24.3354 61.0117 23.0213 65.2946C22.1364 65.0403 21.2791 64.7726 20.4542 64.4908ZM25.483 30.2605C23.5285 20.2719 24.8266 12.7369 28.093 10.8461C31.5723 8.83178 39.266 11.7037 47.3749 18.9039C47.8933 19.3641 48.4136 19.8458 48.9355 20.3441C45.9138 23.5887 42.928 27.2825 40.0759 31.3078C35.1847 31.7611 30.5027 32.4894 26.1979 33.4646C25.9273 32.3759 25.6875 31.3063 25.483 30.2605ZM70.3439 41.3379C69.3148 39.5604 68.2583 37.8249 67.1813 36.1368C70.4996 36.5562 73.6788 37.1131 76.6644 37.7945C75.7681 40.6672 74.6509 43.6707 73.3358 46.7498C72.3924 44.9588 71.3946 43.153 70.3439 41.3379ZM52.0497 23.5193C54.099 25.7394 56.1512 28.2181 58.1698 30.9075C56.1357 30.8115 54.0764 30.7615 52.0001 30.7615C49.9435 30.7615 47.8994 30.8104 45.8779 30.9048C47.8984 28.2404 49.9684 25.7649 52.0497 23.5193ZM33.6384 41.3686C32.6104 43.1511 31.6312 44.9471 30.7026 46.7465C29.4088 43.6781 28.302 40.6609 27.3979 37.7475C30.3651 37.0835 33.5294 36.5405 36.8265 36.129C35.7343 37.8326 34.6691 39.5809 33.6384 41.3682V41.3686ZM36.9215 67.9179C33.5149 67.5379 30.3031 67.0229 27.3366 66.3772C28.2551 63.4118 29.3864 60.3301 30.7076 57.1957C31.6386 58.9937 32.6217 60.7905 33.656 62.5769H33.6562C34.7097 64.3968 35.8011 66.1795 36.9215 67.9179ZM52.1727 80.5239C50.0669 78.252 47.9666 75.7388 45.9153 73.0355C47.9066 73.1137 49.9368 73.1536 52.0001 73.1536C54.1199 73.1536 56.2155 73.1059 58.278 73.0141C56.2528 75.766 54.208 78.2831 52.1727 80.5239ZM73.3782 57.0359C74.7682 60.2042 75.94 63.2698 76.8704 66.1847C73.855 66.8726 70.5994 67.4266 67.1691 67.8383C68.2487 66.1275 69.3145 64.3622 70.3617 62.5463C71.4211 60.7092 72.427 58.8693 73.3782 57.0359ZM66.5132 60.3268C64.8875 63.1456 63.2185 65.8365 61.5241 68.3765C58.438 68.5971 55.2497 68.7108 52.0001 68.7108C48.7637 68.7108 45.6156 68.6103 42.5841 68.4135C40.8214 65.8402 39.1161 63.1413 37.5007 60.351H37.5011C35.89 57.5683 34.4072 54.7621 33.0636 51.9716C34.4068 49.1747 35.8857 46.3653 37.4876 43.5876L37.4872 43.5882C39.0933 40.8031 40.7836 38.1174 42.53 35.5601C45.623 35.3263 48.7946 35.2043 51.9999 35.2043H52.0001C55.2199 35.2043 58.3956 35.3272 61.4876 35.5631C63.2074 38.1016 64.8862 40.7786 66.4986 43.5641C68.1293 46.3809 69.6273 49.1715 70.982 51.9085C69.6314 54.6925 68.1367 57.5113 66.5132 60.3268ZM75.6783 10.7139C79.1609 12.7222 80.5152 20.8219 78.3271 31.4431C78.1876 32.1208 78.0304 32.8111 77.8597 33.5107C73.545 32.5151 68.8596 31.7743 63.9542 31.3141C61.0965 27.2446 58.1351 23.545 55.1627 20.3421C55.9618 19.5733 56.7599 18.8402 57.5546 18.1484C65.2326 11.4666 72.4087 8.82844 75.6783 10.7139ZM52.0001 42.5782C57.129 42.5782 61.287 46.7359 61.287 51.865C61.287 56.9939 57.129 61.1518 52.0001 61.1518C46.8712 61.1518 42.7133 56.9939 42.7133 51.865C42.7133 46.7359 46.8712 42.5782 52.0001 42.5782Z" fill="#00B8D9"/>
</g>
<defs>
<clipPath id="clip0_5_111">
<rect width="104" height="104" fill="white"/>
</clipPath>
</defs>
</svg>
