<svg width="104" height="104" viewBox="0 0 104 104" fill="none" xmlns="http://www.w3.org/2000/svg">
<g clip-path="url(#clip0_5_120)">
<path d="M89.4894 57.8961C85.8711 57.915 82.7265 58.7864 80.0934 60.0746C79.1272 58.1613 78.1611 56.4564 77.9906 55.2061C77.8012 53.7474 77.5739 52.8571 77.8012 51.1143C78.0285 49.3715 79.0515 46.8899 79.0325 46.7004C79.0136 46.511 78.8052 45.6207 76.7214 45.6017C74.6376 45.5828 72.838 45.9995 72.6296 46.5489C72.4212 47.0982 72.0234 48.3485 71.7582 49.6367C71.3983 51.531 67.5906 58.2939 65.4121 61.8363C64.7112 60.4534 64.105 59.2411 63.9724 58.2749C63.783 56.8163 63.5557 55.9259 63.783 54.1831C64.0103 52.4403 65.0333 49.9587 65.0143 49.7693C64.9954 49.5799 64.787 48.6895 62.7032 48.6706C60.6194 48.6516 58.8198 49.0684 58.6114 49.6177C58.403 50.1671 58.1757 51.4553 57.74 52.7055C57.3043 53.9558 52.2464 65.2462 50.9203 68.1635C50.2384 69.66 49.6511 70.8534 49.2343 71.668C49.2343 71.668 49.2154 71.7248 49.1586 71.8196C48.7986 72.5205 48.5903 72.8993 48.5903 72.8993C48.5903 72.8993 48.5903 72.8993 48.5903 72.9183C48.3061 73.4298 48.003 73.9033 47.8515 73.9033C47.7378 73.9033 47.5294 72.5394 47.8894 70.6829C48.6471 66.7616 50.4467 60.6618 50.4278 60.4534C50.4278 60.3398 50.7688 59.2789 49.2533 58.7296C47.7757 58.1802 47.2453 59.0895 47.1127 59.0895C46.9801 59.0895 46.8853 59.4115 46.8853 59.4115C46.8853 59.4115 48.5334 52.554 43.7407 52.554C40.7476 52.554 36.618 55.8312 34.572 58.7864C33.2839 59.4873 30.5371 60.9839 27.6008 62.5941C26.4832 63.2192 25.3276 63.8443 24.2478 64.4316C24.1721 64.3558 24.0963 64.2611 24.0205 64.1853C18.2238 57.9908 7.50174 53.6148 7.95639 45.2986C8.12688 42.2676 9.16877 34.3114 28.548 24.6502C44.4985 16.7886 57.1906 18.9671 59.3881 23.7977C62.5327 30.6931 52.5873 43.499 36.1065 45.3554C29.8172 46.0564 26.521 43.6316 25.6875 42.7223C24.8161 41.7751 24.6835 41.7183 24.3615 41.9077C23.8311 42.1919 24.1721 43.0443 24.3615 43.5369C24.854 44.825 26.881 47.0982 30.3098 48.2159C33.3407 49.201 40.7098 49.7503 49.6322 46.3026C59.6154 42.4381 67.4201 31.6972 65.128 22.699C62.8358 13.5682 47.681 10.5562 33.3407 15.652C24.8161 18.6829 15.5717 23.4567 8.92251 29.6702C1.02305 37.0582 -0.227221 43.48 0.284255 46.17C2.12178 55.7176 15.2875 61.931 20.5538 66.5343C20.2886 66.6859 20.0424 66.8185 19.834 66.9321C17.2008 68.2392 7.16076 73.4866 4.66021 79.037C1.81868 85.3263 5.11486 89.8349 7.29336 90.441C14.0562 92.3165 21.0085 88.9445 24.7404 83.3751C28.4722 77.8057 28.0176 70.5693 26.2937 67.2542C26.2748 67.2163 26.2558 67.1784 26.218 67.1405C26.8999 66.7427 27.6008 66.3259 28.2828 65.9281C29.6278 65.1325 30.9538 64.3937 32.0904 63.7875C31.4464 65.5492 30.9728 67.652 30.7455 70.6829C30.4613 74.2443 31.92 78.8665 33.8333 80.6851C34.6857 81.4808 35.6897 81.4997 36.3338 81.4997C38.5691 81.4997 39.5731 79.6432 40.6908 77.4458C42.0547 74.7558 43.2861 71.6301 43.2861 71.6301C43.2861 71.6301 41.7516 80.0789 45.9192 80.0789C47.4347 80.0789 48.9691 78.1088 49.6511 77.1048V77.1237C49.6511 77.1237 49.689 77.0669 49.7648 76.9343C49.9163 76.688 50.011 76.5365 50.011 76.5365V76.4986C50.6172 75.4378 51.9812 73.0319 54.0081 69.0349C56.6223 63.8822 59.1418 57.4414 59.1418 57.4414C59.1418 57.4414 59.3691 59.0137 60.1458 61.6279C60.6005 63.1624 61.5476 64.8483 62.3054 66.4775C61.6992 67.3299 61.3203 67.8035 61.3203 67.8035C61.3203 67.8035 61.3203 67.8035 61.3393 67.8225C60.8467 68.4666 60.3163 69.1675 59.7291 69.8494C57.6642 72.3121 55.2016 75.1347 54.8606 75.9492C54.4628 76.9154 54.5575 77.6163 55.3152 78.1846C55.8646 78.6013 56.8496 78.6582 57.8537 78.6013C59.7101 78.4687 61.0172 78.0141 61.6613 77.7299C62.6653 77.37 63.8398 76.8206 64.9385 76.0061C66.9655 74.5095 68.1968 72.3689 68.0832 69.5463C68.0263 67.993 67.5149 66.4396 66.8897 64.9809C67.0792 64.7157 67.2496 64.4505 67.4391 64.1853C70.6405 59.5063 73.1221 54.3726 73.1221 54.3726C73.1221 54.3726 73.3495 55.9449 74.1262 58.5591C74.505 59.8851 75.2817 61.3248 75.9637 62.7267C72.9517 65.1704 71.0952 68.0119 70.4322 69.8684C69.2387 73.3161 70.167 74.8695 71.9287 75.2294C72.7243 75.3999 73.8609 75.021 74.6945 74.6611C75.7553 74.3201 77.0056 73.7329 78.199 72.8615C80.226 71.3649 82.1772 69.2811 82.0635 66.4585C82.0067 65.1704 81.6657 63.9012 81.1921 62.6698C83.7495 61.609 87.0456 61.0217 91.2511 61.5143C100.268 62.5751 102.049 68.2013 101.708 70.5693C101.367 72.9372 99.4726 74.2254 98.8475 74.6232C98.2223 75.021 98.0139 75.1536 98.0708 75.4378C98.1466 75.8545 98.4497 75.8356 98.9801 75.7598C99.7189 75.6272 103.716 73.8465 103.886 69.4895C104.171 63.9201 98.8664 57.8392 89.4894 57.8961ZM19.9287 81.3482C16.9356 84.6064 12.768 85.8378 10.9684 84.7959C9.03617 83.6782 9.79391 78.8666 13.469 75.4188C15.7043 73.3161 18.5837 71.3649 20.497 70.1715C20.9327 69.9063 21.5768 69.5274 22.3535 69.0538C22.4861 68.978 22.5619 68.9401 22.5619 68.9401C22.7134 68.8454 22.8649 68.7507 23.0165 68.656C24.3615 73.5813 23.0733 77.9194 19.9287 81.3482ZM41.7138 66.5343C40.6719 69.0727 38.4934 75.5704 37.1673 75.2104C36.0307 74.9074 35.3298 69.982 36.94 65.1136C37.7546 62.6698 39.4784 59.7525 40.4824 58.6159C42.1116 56.7973 43.9112 56.1911 44.3469 56.9299C44.8963 57.8961 42.3578 64.9431 41.7138 66.5343ZM59.6912 75.1347C59.2555 75.362 58.8387 75.5135 58.6493 75.3999C58.5167 75.3241 58.8387 75.021 58.8387 75.021C58.8387 75.021 61.093 72.5962 61.9833 71.4975C62.4948 70.8534 63.101 70.0957 63.7451 69.2432V69.4895C63.7451 72.3879 60.9414 74.339 59.6912 75.1347ZM73.5578 71.9711C73.2358 71.7438 73.2926 70.986 74.3724 68.6181C74.7892 67.6899 75.7742 66.1365 77.4602 64.64C77.6497 65.2462 77.7823 65.8334 77.7633 66.3828C77.7444 70.0389 75.1302 71.4028 73.5578 71.9711Z" fill="#CD6799"/>
</g>
<defs>
<clipPath id="clip0_5_120">
<rect width="104" height="104" fill="white"/>
</clipPath>
</defs>
</svg>
