<svg width="93" height="93" viewBox="0 0 93 93" fill="none" xmlns="http://www.w3.org/2000/svg">
<g clip-path="url(#clip0_5_95)">
<path d="M92.9729 -0.00012207H0.0273682C0.0123206 -0.00012207 0.00012207 0.0120764 0.00012207 0.027124V92.9726C0.00012207 92.9877 0.0123206 92.9999 0.0273682 92.9999H92.9729C92.9879 92.9999 93.0001 92.9877 93.0001 92.9726V0.027124C93.0001 0.0120764 92.9879 -0.00012207 92.9729 -0.00012207Z" fill="#3178C6"/>
<path d="M42.3224 51.5858H53.9474V44.1385H21.4337V51.5858H33.0587V84.826H42.3224V51.5858ZM57.5802 83.0096C59.0515 83.7725 60.8497 84.3356 62.8478 84.717C64.8458 85.0985 67.0255 85.2801 69.2052 85.2801C71.3849 85.2801 73.3829 85.0803 75.381 84.6625C77.379 84.2448 79.0138 83.5545 80.4669 82.6645C81.9382 81.7018 83.1915 80.4848 83.9181 78.85C84.6447 77.2153 85.2077 75.3989 85.2077 73.0375C85.2077 71.3846 84.9534 69.9497 84.463 68.6782C83.9726 67.4067 83.2642 66.3168 82.2833 65.4086C81.357 64.4459 80.2853 63.5922 79.0138 62.8657C77.7423 62.1391 76.2892 61.3762 74.6544 60.686C73.4556 60.1956 72.4747 59.7233 71.3849 59.251C70.4404 58.7788 69.623 58.3065 69.0236 57.8342C68.3515 57.3438 67.8429 56.8352 67.4796 56.3084C67.1163 55.7635 66.9347 55.1641 66.9347 54.492C66.9347 53.8745 67.0964 53.3114 67.4251 52.8028C67.7539 52.2942 68.2062 51.8764 68.7874 51.5131C69.3687 51.1499 70.0952 50.8774 70.9671 50.6776C71.8208 50.4778 72.7654 50.387 73.8734 50.387C74.6363 50.387 75.4355 50.4433 76.2347 50.5577C77.0702 50.6721 77.924 50.8483 78.7777 51.0845C79.6314 51.3206 80.4669 51.6112 81.3206 51.9745C82.1199 52.3378 82.8646 52.7556 83.5003 53.2278V44.6907C82.1199 44.164 80.5941 43.7643 78.9593 43.51C77.3245 43.2557 75.5081 43.1286 73.3284 43.1286C71.1488 43.1286 69.1507 43.3647 67.1527 43.8188C65.1546 44.2729 63.5199 44.9995 62.0667 45.9985C60.5954 46.9794 59.5238 48.1782 58.6156 49.813C57.7618 51.3388 57.3441 53.0825 57.3441 55.2622C57.3441 57.9868 58.1251 60.3481 59.7054 62.1645C61.2675 64.1626 63.7015 65.6157 66.7894 67.0688C68.0427 67.5774 69.1507 68.086 70.2406 68.5765C71.3304 69.0669 72.2386 69.5755 72.9652 70.1022C73.7462 70.629 74.3638 71.2102 74.7816 71.8278C75.2357 72.4454 75.4718 73.172 75.4718 74.0075C75.4718 74.5888 75.3301 75.1337 75.054 75.6423C74.7779 76.1509 74.3456 76.5868 73.7644 76.9501C73.1831 77.3134 72.4747 77.604 71.5847 77.822C70.731 78.0218 69.7683 78.1308 68.4968 78.1308C66.4988 78.1308 64.5007 77.7856 62.6843 77.0954C60.6863 76.4052 58.8699 75.3698 57.5802 74.2909V83.0096Z" fill="white"/>
</g>
<defs>
<clipPath id="clip0_5_95">
<rect x="0.00012207" y="-0.00012207" width="93" height="93" rx="14" fill="white"/>
</clipPath>
</defs>
</svg>
