<svg width="111" height="111" viewBox="0 0 111 111" fill="none" xmlns="http://www.w3.org/2000/svg">
<g clip-path="url(#clip0_5_1705)">
<path d="M55.5001 0.0183105L104.493 27.7318V83.1772L55.5001 110.891L6.50702 83.1772V27.7318L55.5001 0.0183105Z" fill="white"/>
<path d="M95.7484 81.2544L57.1271 103.126V86.1168L81.1984 72.8609L95.7484 81.2544ZM98.3922 78.8695V33.1672L84.2674 41.3204V70.7163L98.3922 78.8695ZM15.1039 81.2544L53.7253 103.107V86.0983L29.6539 72.8609L15.1039 81.2544ZM12.4601 78.8695V33.1672L26.5849 41.3204V70.7163L12.4601 78.8695ZM14.1056 30.2092L53.7253 7.80176V24.256L28.3413 38.2145L28.1379 38.3254L14.1056 30.2092ZM96.7283 30.2092L57.1271 7.80176V24.256L82.4925 38.2329L82.6959 38.3439L96.7283 30.2092Z" fill="#8ED6FB"/>
<path d="M53.7253 82.2342L29.9867 69.1632V43.2986L53.7253 56.9982V82.2342ZM57.1271 82.2342L80.8656 69.1817V43.2986L57.1271 56.9982V82.2342ZM31.5767 40.3035L55.4262 27.1956L79.2572 40.3035L55.4262 54.0586L31.5767 40.3035Z" fill="#1C78C0"/>
</g>
<defs>
<clipPath id="clip0_5_1705">
<rect width="111" height="111" fill="white"/>
</clipPath>
</defs>
</svg>
