<svg width="11" height="13" viewBox="0 0 11 13" fill="none" xmlns="http://www.w3.org/2000/svg">
<path d="M7.75001 9.80001V10.9C7.75001 11.1917 7.63148 11.4715 7.4205 11.6778C7.20952 11.8841 6.92338 12 6.62501 12H2.125C1.82663 12 1.54048 11.8841 1.32951 11.6778C1.11853 11.4715 1 11.1917 1 10.9V4.85003C1 4.55829 1.11853 4.2785 1.32951 4.07221C1.54048 3.86592 1.82663 3.75003 2.125 3.75003H3.25M3.24999 2.1V8.69997C3.24999 8.99171 3.36852 9.2715 3.5795 9.47779C3.79048 9.68408 4.07662 9.79997 4.37499 9.79997H8.875C9.17337 9.79997 9.45952 9.68408 9.67049 9.47779C9.88147 9.2715 10 8.99171 10 8.69997V3.88309C9.99998 3.73655 9.97002 3.59149 9.91187 3.45643C9.85372 3.32136 9.76855 3.19902 9.66137 3.09659L7.79669 1.3135C7.58651 1.11256 7.30426 1.00004 7.01031 1H4.37499C4.07662 1 3.79048 1.11589 3.5795 1.32218C3.36852 1.52847 3.24999 1.80826 3.24999 2.1Z" stroke="black" stroke-linecap="round" stroke-linejoin="round" stroke-width="1.1"/>
</svg>
