<svg width="14" height="18" viewBox="0 0 14 18" fill="none" xmlns="http://www.w3.org/2000/svg">
<path d="M1.09479 0.228313C0.788074 0.338653 0.550294 0.576434 0.433114 0.879554C0.384874 1.01059 0.381454 1.81339 0.388294 9.07099L0.398554 17.1177L0.491614 17.2761C0.612214 17.4829 0.849994 17.6966 1.03953 17.769C1.18083 17.8206 1.63227 17.824 7.04955 17.8172C12.6254 17.8069 12.9149 17.8033 13.0218 17.7448C13.2252 17.6345 13.4181 17.4313 13.518 17.221L13.6145 17.0142V10.2046C13.6145 4.10155 13.6077 3.37777 13.5594 3.22621C13.5112 3.07465 13.3767 2.92993 12.1396 1.69963C11.0886 0.658873 10.7302 0.324613 10.5992 0.262513L10.4269 0.179894L5.82627 0.183313C2.04591 0.183493 1.20153 0.190333 1.09479 0.228313ZM9.92721 2.21335C9.92721 3.65731 9.93405 3.71239 10.1306 3.81229C10.2203 3.86053 10.4235 3.86737 11.5641 3.86737H12.8909V10.4082C12.8909 16.2357 12.8841 16.9593 12.8358 17.0248L12.7842 17.1006H6.99789C1.78383 17.1006 1.20837 17.0938 1.16013 17.0455C1.11189 16.9973 1.10505 16.2219 1.10505 9.02293C1.10505 0.703873 1.10163 0.979633 1.24293 0.927973C1.27047 0.917713 3.23823 0.907273 5.61261 0.907273L9.92721 0.903854V2.21335ZM11.6158 2.20633C12.1086 2.68873 12.5118 3.09553 12.5118 3.11263C12.5118 3.13333 12.1466 3.14017 11.5917 3.13675L10.6681 3.12649L10.6578 2.22019C10.6544 1.62403 10.6613 1.31389 10.6854 1.32415C10.7025 1.32757 11.123 1.72735 11.6158 2.20633Z" fill="black" stroke="black" stroke-width="0.3"/>
<path d="M4.54577 6.08274C3.38014 6.4343 2.7194 7.61203 3.11505 8.62921C3.23287 8.93585 3.38432 9.15636 3.6538 9.40695C4.08725 9.81085 4.54599 9.99776 5.11396 9.99776C5.65688 9.99776 6.26289 9.76222 6.59941 9.42198C6.83504 9.17902 6.75085 8.86105 6.42268 8.76398C6.24596 8.71164 6.09012 8.76027 5.89251 8.93214C5.3452 9.40323 4.38992 9.26124 4.04483 8.65539C3.85536 8.33 3.83448 7.86262 3.98175 7.47375C4.08703 7.20832 4.41938 6.92043 4.71392 6.84192C5.16847 6.72219 5.53027 6.78957 5.8879 7.06242C6.04352 7.18215 6.14881 7.23078 6.23299 7.23078C6.50643 7.23078 6.68755 7.07004 6.69173 6.82688C6.69173 6.63235 6.54446 6.47532 6.16573 6.27727C5.62721 5.99309 5.06341 5.92571 4.54577 6.08274Z" fill="black"/>
<path d="M7.48303 6.18372C7.35268 6.27336 7.2641 6.45286 7.29355 6.56145C7.3063 6.60266 7.64282 7.35422 8.04683 8.22922C8.49281 9.20519 8.81263 9.85206 8.87593 9.90811C9.00628 10.0241 9.28411 10.0316 9.43973 9.92315C9.51974 9.8671 9.72592 9.44444 10.2897 8.19562C11.1061 6.38215 11.1019 6.38957 10.8537 6.20637C10.7023 6.09055 10.5128 6.07922 10.3319 6.17649C10.2225 6.23625 10.1424 6.38586 9.70482 7.36555C9.43138 7.97883 9.19135 8.49484 9.17882 8.50968C9.16212 8.52824 8.91374 8.02355 8.62755 7.39523C8.16882 6.38567 8.0932 6.23977 7.97957 6.18C7.81119 6.09016 7.61359 6.09016 7.48303 6.18372Z" fill="black"/>
<path d="M2.91084 11.9661C2.68332 12.0591 2.61798 12.3795 2.79024 12.5554L2.89014 12.6553H6.9945H11.0989L11.2056 12.5588C11.2952 12.4796 11.3159 12.4348 11.3159 12.3244C11.3159 12.1522 11.2297 12.0177 11.092 11.9695C10.961 11.9247 3.02118 11.9212 2.91084 11.9661Z" fill="black"/>
<path d="M2.80744 14.2887C2.6386 14.4575 2.65246 14.6814 2.84182 14.8332C2.91076 14.8882 3.1795 14.8953 7.00126 14.8953C11.0469 14.8953 11.0918 14.8953 11.178 14.8263C11.3088 14.723 11.3573 14.5506 11.2917 14.4024C11.1918 14.1544 11.4813 14.1715 6.97714 14.1715H2.92462L2.80744 14.2887Z" fill="black"/>
</svg>
