<svg width="661" height="1036" viewBox="0 0 661 1036" fill="none" xmlns="http://www.w3.org/2000/svg">
<path d="M69.2992 714.818C69.2992 606.557 69.5151 325.749 69.5763 155.755C69.5835 131.504 89.8213 111.857 114.777 111.864C139.725 111.871 159.945 131.526 159.945 155.769C159.945 155.776 159.945 155.78 159.945 155.784C159.884 325.775 159.668 606.571 159.668 714.818C159.668 806.356 236.301 880.826 330.498 880.826C412.655 880.826 501.329 817.356 501.329 714.818L501.329 216.113C501.329 198.828 495.215 184.278 483.153 172.866C471.4 161.747 454.408 154.81 439.863 155.187L439.24 155.205L438.618 155.205C428.233 155.197 411.086 159.221 396.94 170.59C383.029 181.767 375.976 197.084 375.976 216.113L375.976 722.478C375.976 746.729 355.745 766.387 330.79 766.387C305.834 766.387 285.604 746.729 285.604 722.478L285.604 216.113C285.604 170.959 304.693 130.755 339.358 102.908C353.712 91.3766 370.081 82.3849 388.009 76.1867C404.486 70.4913 421.777 67.4519 438.057 67.3868C476.737 66.5581 517.115 82.4392 546.187 109.942C575.533 137.706 591.694 175.41 591.694 216.113L591.694 714.818C591.694 784.714 563.463 849.537 512.207 897.347C488.075 919.853 460.087 937.504 429.017 949.81C397.455 962.311 364.306 968.647 330.498 968.647C296.439 968.647 263.092 962.221 231.385 949.546C200.327 937.127 172.356 919.336 148.25 896.659C97.3386 848.77 69.2992 784.193 69.2992 714.818ZM0.499986 714.818C0.499988 758.318 9.17951 800.364 26.2939 839.786C43.4406 879.277 68.3744 914.574 100.401 944.697C130.797 973.286 166.059 995.72 205.21 1011.37C245.261 1027.38 287.414 1035.5 330.498 1035.5C373.252 1035.5 415.134 1027.5 454.984 1011.72C494.139 996.215 529.422 973.962 559.851 945.58C592.133 915.471 617.261 880.087 634.537 840.419C651.763 800.859 660.5 758.601 660.5 714.818L660.5 216.113C660.5 186.988 654.768 158.845 643.461 132.47C632.068 105.893 615.49 82.1968 594.187 62.0389C573.6 42.5612 548.483 26.6657 521.556 16.0711C494.405 5.38603 465.232 0.0199209 437.161 0.533731C413.4 0.700177 388.448 5.07478 364.961 13.1944C339.444 22.016 316.083 34.8648 295.528 51.3791C270.27 71.6709 250.587 96.4459 237.024 125.009C233.728 131.949 230.835 139.034 228.341 146.253C227.326 134.678 224.458 123.406 219.773 112.638C214.03 99.4419 205.825 87.6062 195.383 77.4567C184.94 67.3072 172.763 59.3287 159.186 53.7455C145.094 47.9489 130.167 45.0108 114.813 45.0036C99.458 45 84.5244 47.9309 70.4255 53.7166C56.8413 59.2926 44.6568 67.2638 34.2069 77.4134C23.7569 87.5593 15.5416 99.3949 9.79123 112.595C3.82495 126.29 0.795031 140.804 0.787835 155.729C0.762649 230.532 0.705076 327.041 0.651103 420.373C0.568343 540.608 0.499983 654.178 0.499986 714.818Z" fill="url(#paint0_linear_1257_2)"/>
<defs>
<linearGradient id="paint0_linear_1257_2" x1="330.5" y1="1016.5" x2="330.5" y2="14" gradientUnits="userSpaceOnUse">
<stop stop-color="#DBE0ED"/>
<stop offset="1" stop-color="#D1D6E5"/>
</linearGradient>
</defs>
</svg>
