<svg width="1035" height="660" viewBox="0 0 1035 660" fill="none" xmlns="http://www.w3.org/2000/svg">
<path d="M320.682 68.7993C428.943 68.7993 709.751 69.0151 879.745 69.0763C903.996 69.0835 923.643 89.3214 923.636 114.277C923.629 139.225 903.974 159.445 879.731 159.445C879.724 159.445 879.72 159.445 879.716 159.445C709.725 159.384 428.929 159.168 320.682 159.168C229.144 159.168 154.674 235.801 154.674 329.998C154.674 412.155 218.144 500.829 320.682 500.829H819.387C836.672 500.829 851.222 494.715 862.634 482.653C873.753 470.9 880.69 453.908 880.313 439.363L880.295 438.741V438.118C880.303 427.733 876.279 410.586 864.91 396.44C853.733 382.529 838.416 375.476 819.387 375.476H313.022C288.771 375.476 269.113 355.245 269.113 330.29C269.113 305.334 288.771 285.104 313.022 285.104H819.387C864.541 285.104 904.745 304.194 932.592 338.858C944.123 353.212 953.115 369.581 959.313 387.509C965.009 403.986 968.048 421.277 968.113 437.557C968.942 476.237 953.061 516.615 925.558 545.687C897.794 575.033 860.09 591.194 819.387 591.194H320.682C250.786 591.194 185.963 562.963 138.153 511.707C115.647 487.575 97.9963 459.587 85.6903 428.517C73.1888 396.955 66.853 363.806 66.853 329.998C66.853 295.939 73.2792 262.592 85.9544 230.885C98.3727 199.827 116.164 171.856 138.841 147.75C186.73 96.8386 251.307 68.7993 320.682 68.7993ZM320.682 0C277.182 0 235.136 8.67952 195.714 25.7939C156.223 42.9406 120.926 67.8744 90.803 99.9009C62.2143 130.297 39.7804 165.559 24.1309 204.71C8.11963 244.761 0 286.914 0 329.998C0 372.752 8.00022 414.634 23.7799 454.484C39.2847 493.639 61.5376 528.922 89.9201 559.351C120.029 591.633 155.413 616.761 195.081 634.037C234.641 651.263 276.899 660 320.682 660H819.387C848.512 660 876.655 654.268 903.03 642.961C929.606 631.568 953.303 614.99 973.461 593.687C992.939 573.1 1008.83 547.983 1019.43 521.056C1030.11 493.905 1035.48 464.732 1034.97 436.661C1034.8 412.9 1030.43 387.948 1022.31 364.461C1013.48 338.944 1000.64 315.583 984.121 295.028C963.829 269.77 939.054 250.087 910.491 236.524C903.551 233.228 896.466 230.335 889.247 227.841C900.822 226.826 912.094 223.958 922.862 219.273C936.058 213.53 947.894 205.325 958.043 194.883C968.193 184.44 976.171 172.263 981.754 158.686C987.551 144.594 990.489 129.667 990.496 114.313C990.5 98.9581 987.569 84.0244 981.783 69.9256C976.207 56.3413 968.236 44.1569 958.087 33.7069C947.941 23.2569 936.105 15.0416 922.905 9.29127C909.21 3.32499 894.696 0.295071 879.771 0.287874C804.968 0.262684 708.459 0.205107 615.127 0.15113C494.892 0.0683649 381.322 0 320.682 0Z" fill="url(#paint0_linear_1257_2)"/>
<defs>
<linearGradient id="paint0_linear_1257_2" x1="19" y1="330" x2="1021.5" y2="330" gradientUnits="userSpaceOnUse">
<stop stop-color="#DBE0ED"/>
<stop offset="1" stop-color="#D1D6E5"/>
</linearGradient>
</defs>
</svg>
