<?xml version="1.0" encoding="utf-8"?>
<!-- Generator: Adobe Illustrator 23.0.0, SVG Export Plug-In . SVG Version: 6.00 Build 0)  -->
<svg version="1.1" id="Capa_4_copia_14" xmlns="http://www.w3.org/2000/svg" xmlns:xlink="http://www.w3.org/1999/xlink" x="0px"
	 y="0px" viewBox="0 0 3000 3000" style="enable-background:new 0 0 3000 3000;" xml:space="preserve">
<style type="text/css">
	.st0{fill:#FFFFFF;}
</style>
<g>
	<g>
		<path class="st0" d="M956.06,774.14c299.2,0,1075.26,0.6,1545.07,0.77c67.02,0.02,121.32,56.26,121.3,125.61
			c-0.02,69.33-54.34,125.52-121.34,125.52c-0.02,0-0.03,0-0.04,0c-469.8-0.17-1245.83-0.77-1544.99-0.77
			c-252.98,0-458.79,212.96-458.79,474.73c0,228.31,175.41,474.73,458.79,474.73h1378.26c47.77,0,87.98-16.99,119.52-50.51
			c30.73-32.66,49.9-79.88,48.86-120.3l-0.05-1.73l0-1.73c0.02-28.86-11.1-76.51-42.52-115.82
			c-30.89-38.66-73.22-58.26-125.81-58.26H934.89c-67.02,0-121.35-56.22-121.35-125.57c0-69.35,54.33-125.57,121.35-125.57h1399.43
			c124.79,0,235.9,53.05,312.86,149.38c31.87,39.89,56.72,85.38,73.85,135.2c15.74,45.79,24.14,93.84,24.32,139.08
			c2.29,107.49-41.6,219.7-117.61,300.49c-76.73,81.55-180.93,126.46-293.42,126.46H956.06c-193.17,0-372.32-78.45-504.45-220.89
			c-62.2-67.06-110.98-144.84-144.99-231.18c-34.55-87.71-52.06-179.83-52.06-273.78c0-94.65,17.76-187.32,52.79-275.43
			c34.32-86.31,83.49-164.04,146.16-231.03C585.86,852.06,764.33,774.14,956.06,774.14 M956.06,582.95
			c-120.22,0-236.42,24.12-345.37,71.68C501.55,702.28,404,771.57,320.75,860.57c-79.01,84.47-141.01,182.46-184.26,291.26
			C92.24,1263.13,69.8,1380.27,69.8,1500c0,118.81,22.11,235.2,65.72,345.94c42.85,108.81,104.35,206.86,182.79,291.42
			c83.21,89.71,181,159.54,290.63,207.55c109.33,47.87,226.12,72.15,347.12,72.15h1378.26c80.49,0,158.27-15.93,231.16-47.35
			c73.45-31.66,138.94-77.73,194.65-136.93c53.83-57.21,97.76-127.01,127.04-201.84c29.53-75.45,44.36-156.52,42.94-234.53
			c-0.46-66.03-12.55-135.37-34.99-200.64c-24.38-70.91-59.89-135.83-105.53-192.95c-56.08-70.19-124.55-124.89-203.49-162.58
			c-19.18-9.16-38.76-17.2-58.71-24.13c31.99-2.82,63.14-10.79,92.9-23.81c36.47-15.96,69.18-38.76,97.23-67.78
			c28.05-29.02,50.1-62.86,65.53-100.59c16.02-39.16,24.14-80.64,24.16-123.31c0.01-42.67-8.09-84.17-24.08-123.35
			c-15.41-37.75-37.44-71.61-65.49-100.65c-28.04-29.04-60.75-51.87-97.23-67.85c-37.85-16.58-77.96-25-119.21-25.02
			c-206.73-0.07-473.45-0.23-731.39-0.38C1437.52,583.14,1123.65,582.95,956.06,582.95L956.06,582.95z"/>
	</g>
</g>
</svg>
