<svg width="33" height="34" viewBox="0 0 33 34" fill="none" xmlns="http://www.w3.org/2000/svg">
<g clip-path="url(#clip0_1320_13)">
<path d="M16.5 0C7.38925 0 0 7.61175 0 17C0 24.5112 4.72725 30.8833 11.2846 33.1316C12.1082 33.2888 12.375 32.7618 12.375 32.3142V29.1493C7.78525 30.1778 6.82963 27.1433 6.82963 27.1433C6.07888 25.1784 4.99675 24.6557 4.99675 24.6557C3.49938 23.6002 5.11088 23.6229 5.11088 23.6229C6.76775 23.7419 7.6395 25.3753 7.6395 25.3753C9.11075 27.9735 11.4991 27.2227 12.441 26.7877C12.5881 25.6898 13.0158 24.939 13.4888 24.5154C9.82438 24.0833 5.97162 22.6256 5.97162 16.1132C5.97162 14.2559 6.6165 12.7401 7.67112 11.5501C7.50063 11.1208 6.9355 9.39108 7.832 7.05075C7.832 7.05075 9.218 6.59458 12.3709 8.79325C13.6867 8.41642 15.0975 8.228 16.5 8.22092C17.9025 8.228 19.3146 8.41642 20.6332 8.79325C23.7834 6.59458 25.1666 7.05075 25.1666 7.05075C26.0645 9.3925 25.4994 11.1222 25.3289 11.5501C26.3876 12.7401 27.027 14.2573 27.027 16.1132C27.027 22.6426 23.1674 24.0805 19.4934 24.5012C20.0846 25.0282 20.625 26.0624 20.625 27.6491V32.3142C20.625 32.7661 20.889 33.2973 21.7264 33.1302C28.2782 30.8791 33 24.5083 33 17C33 7.61175 25.6121 0 16.5 0Z" fill="black"/>
</g>
<defs>
<clipPath id="clip0_1320_13">
<rect width="33" height="34" fill="white"/>
</clipPath>
</defs>
</svg>
