<svg width="33" height="33" viewBox="0 0 33 33" fill="none" xmlns="http://www.w3.org/2000/svg">
<g clip-path="url(#clip0_1320_15)">
<path d="M30.5559 0.0012207H2.43581C1.09312 0.0012207 0 1.0665 0 2.37825V30.618C0 31.9328 1.09312 33.0002 2.43581 33.0002H30.558C31.9038 33.0002 33 31.9328 33 30.618V2.37825C33 1.0665 31.9038 0.0012207 30.5559 0.0012207Z" fill="#0177B5"/>
<path d="M4.89328 12.3719H9.79688V28.1191H4.89328V12.3719ZM7.34147 4.53443C8.90588 4.53443 10.1774 5.80596 10.1774 7.37036C10.1774 8.93477 8.90588 10.2094 7.3425 10.2094C6.58995 10.2078 5.86868 9.90816 5.33644 9.37612C4.80421 8.84408 4.50435 8.12291 4.50244 7.37036C4.50244 6.99768 4.5759 6.62866 4.71861 6.28438C4.86132 5.94011 5.07049 5.62734 5.33416 5.36396C5.59783 5.10058 5.91083 4.89175 6.25526 4.74941C6.59968 4.60707 6.96879 4.53402 7.34147 4.53443ZM12.8587 12.3719H17.5529V14.5241H17.6179C18.2717 13.2866 19.8681 11.9811 22.2585 11.9811C27.2147 11.9811 28.1294 15.2429 28.1294 19.4824V28.1201H23.2382V20.46C23.2382 18.6347 23.2052 16.2835 20.6951 16.2835C18.1479 16.2835 17.7561 18.2738 17.7561 20.326V28.116H12.8659V12.3688L12.8587 12.3719Z" fill="white"/>
</g>
<defs>
<clipPath id="clip0_1320_15">
<rect width="33" height="33" fill="white"/>
</clipPath>
</defs>
</svg>
